<svg width="291" height="110" viewBox="0 0 291 110" fill="none" xmlns="http://www.w3.org/2000/svg">
    <path d="M128.777 24.8394L131.497 21.8957C131.983 22.419 132.627 22.933 133.431 23.4376C134.254 23.9422 135.207 24.1945 136.291 24.1945C136.721 24.1945 137.141 24.1198 137.552 23.9703C137.964 23.8021 138.3 23.5684 138.562 23.2694C138.842 22.9517 138.982 22.5779 138.982 22.148C138.982 21.4564 138.646 20.9144 137.973 20.5219C137.3 20.1295 136.235 19.7557 134.777 19.4005C133.356 19.0454 132.179 18.4193 131.244 17.5222C130.31 16.6251 129.843 15.4663 129.843 14.0458C129.843 12.9992 130.095 12.046 130.6 11.1863C131.104 10.3078 131.861 9.60694 132.87 9.08362C133.88 8.54161 135.151 8.2706 136.683 8.2706C137.954 8.2706 139.02 8.43881 139.879 8.77523C140.758 9.09296 141.459 9.44808 141.982 9.84057C142.505 10.2331 142.87 10.5508 143.075 10.7938L140.636 13.4851C140.225 13.1674 139.683 12.8123 139.01 12.4198C138.337 12.0086 137.543 11.803 136.627 11.803C136.029 11.803 135.468 11.9806 134.945 12.3357C134.44 12.6721 134.188 13.0833 134.188 13.5692C134.188 14.2047 134.525 14.7187 135.197 15.1112C135.87 15.5037 136.795 15.8307 137.973 16.0924C138.889 16.3167 139.767 16.6531 140.608 17.1017C141.468 17.5502 142.169 18.1763 142.711 18.98C143.253 19.7837 143.524 20.8303 143.524 22.1199C143.524 23.2414 143.206 24.2413 142.571 25.1197C141.935 25.9981 141.075 26.6897 139.991 27.1943C138.907 27.6989 137.693 27.9512 136.347 27.9512C135.113 27.9512 134.02 27.8017 133.067 27.5027C132.114 27.2036 131.282 26.8205 130.572 26.3532C129.861 25.8673 129.263 25.3627 128.777 24.8394ZM135.001 7.37348L131.833 3H135.197L136.683 5.10263L138.197 3H141.533L138.365 7.37348H135.001Z" fill="#222222"/>
    <path d="M145.621 27.4747V8.77523H149.658V18.4754L153.667 14.3262H158.237L153.527 19.1763L158.882 27.4747H154.2L150.836 21.9237L149.658 23.1292V27.4747H145.621Z" fill="#222222"/>
    <path d="M158.431 20.8864C158.431 19.5968 158.731 18.4193 159.329 17.354C159.927 16.2886 160.749 15.4476 161.796 14.8308C162.861 14.1954 164.095 13.8776 165.496 13.8776C166.898 13.8776 168.122 14.1954 169.169 14.8308C170.234 15.4476 171.057 16.2886 171.636 17.354C172.234 18.4193 172.533 19.5968 172.533 20.8864C172.533 22.176 172.234 23.3535 171.636 24.4188C171.057 25.4842 170.234 26.3346 169.169 26.97C168.122 27.6055 166.898 27.9232 165.496 27.9232C164.095 27.9232 162.861 27.6055 161.796 26.97C160.749 26.3346 159.927 25.4842 159.329 24.4188C158.731 23.3535 158.431 22.176 158.431 20.8864ZM165.496 24.4188C166.188 24.4188 166.758 24.2506 167.206 23.9142C167.674 23.5778 168.029 23.1386 168.272 22.5965C168.515 22.0545 168.636 21.4845 168.636 20.8864C168.636 20.2883 168.515 19.7276 168.272 19.2043C168.029 18.6623 167.674 18.2231 167.206 17.8866C166.758 17.5502 166.188 17.382 165.496 17.382C164.823 17.382 164.244 17.5502 163.758 17.8866C163.291 18.2231 162.936 18.6623 162.693 19.2043C162.45 19.7276 162.328 20.2883 162.328 20.8864C162.328 21.4845 162.45 22.0545 162.693 22.5965C162.936 23.1386 163.291 23.5778 163.758 23.9142C164.244 24.2506 164.823 24.4188 165.496 24.4188Z" fill="#222222"/>
    <path d="M174.226 27.4747V8.77523H178.263V27.4747H174.226Z" fill="#222222"/>
    <path d="M188.272 27.4747L188.159 26.2411C187.225 27.3251 185.898 27.8671 184.178 27.8671C183.562 27.8671 182.908 27.7457 182.216 27.5027C181.543 27.2784 180.964 26.8672 180.478 26.2691C179.992 25.6711 179.749 24.8487 179.749 23.8021C179.749 22.7741 180.011 21.905 180.534 21.1948C181.076 20.4846 181.805 19.9519 182.721 19.5968C183.636 19.223 184.664 19.0361 185.804 19.0361C186.272 19.0361 186.739 19.0454 187.206 19.0641C187.692 19.0828 188.01 19.1108 188.159 19.1482V18.8679C188.159 18.195 187.898 17.7184 187.374 17.4381C186.87 17.139 186.29 16.9895 185.636 16.9895C184.758 16.9895 184.02 17.1017 183.421 17.3259C182.823 17.5502 182.319 17.8025 181.908 18.0829L180.254 15.6158C180.796 15.1859 181.534 14.7934 182.468 14.4383C183.403 14.0645 184.646 13.8776 186.197 13.8776C188.197 13.8776 189.673 14.4196 190.627 15.5037C191.58 16.569 192.056 18.0081 192.056 19.8211V27.4747H188.272ZM188.159 22.7367V21.6714C188.066 21.6527 187.888 21.634 187.627 21.6153C187.365 21.5779 187.066 21.5592 186.73 21.5592C185.608 21.5592 184.814 21.7181 184.347 22.0358C183.879 22.3536 183.646 22.8021 183.646 23.3815C183.646 24.4656 184.3 25.0076 185.608 25.0076C186.244 25.0076 186.823 24.8113 187.346 24.4188C187.888 24.0263 188.159 23.4656 188.159 22.7367Z" fill="#222222"/>
    <path d="M198.625 33.0817V14.3262H202.494C202.532 14.5692 202.56 14.8121 202.578 15.0551C202.597 15.2794 202.616 15.513 202.634 15.756C203.064 15.214 203.616 14.8028 204.288 14.5224C204.961 14.2234 205.662 14.0739 206.391 14.0739C207.681 14.0739 208.755 14.3916 209.615 15.0271C210.475 15.6625 211.12 16.4942 211.549 17.5222C211.979 18.5501 212.194 19.6435 212.194 20.8023C212.194 22.0172 211.989 23.0731 211.578 23.9703C211.185 24.8674 210.652 25.6056 209.98 26.185C209.307 26.7644 208.568 27.1943 207.765 27.4747C206.961 27.755 206.148 27.8952 205.326 27.8952C204.69 27.8952 204.167 27.8391 203.756 27.727C203.345 27.6148 202.971 27.5027 202.634 27.3905V33.0817H198.625ZM202.634 20.4939V23.9983C203.176 24.3534 203.952 24.531 204.961 24.531C205.952 24.531 206.727 24.1945 207.288 23.5217C207.868 22.8489 208.157 21.9704 208.157 20.8864C208.157 20.307 208.064 19.765 207.877 19.2604C207.709 18.737 207.419 18.3165 207.008 17.9988C206.615 17.6811 206.083 17.5222 205.41 17.5222C204.513 17.5222 203.821 17.8306 203.335 18.4473C202.868 19.0641 202.634 19.7463 202.634 20.4939Z" fill="#222222"/>
    <path d="M213.886 27.4747V14.3262H217.755L217.895 15.9803C218.231 15.5317 218.689 15.1018 219.269 14.6906C219.867 14.2795 220.633 14.0739 221.567 14.0739C221.923 14.0739 222.222 14.0926 222.465 14.1299C222.726 14.1673 222.979 14.2327 223.221 14.3262L222.577 17.8866C222.166 17.7558 221.68 17.6904 221.119 17.6904C220.166 17.6904 219.39 17.9801 218.792 18.5595C218.213 19.1202 217.923 19.9239 217.923 20.9705V27.4747H213.886Z" fill="#222222"/>
    <path d="M234.409 23.4937L236.063 26.0449C235.876 26.1757 235.54 26.3906 235.054 26.6897C234.586 26.9887 233.96 27.2691 233.175 27.5307C232.39 27.7924 231.428 27.9232 230.288 27.9232C228.792 27.9232 227.503 27.6242 226.419 27.0261C225.335 26.428 224.503 25.5963 223.924 24.531C223.344 23.4656 223.055 22.2414 223.055 20.8584C223.055 19.6248 223.316 18.4754 223.84 17.41C224.382 16.3447 225.157 15.4943 226.167 14.8589C227.194 14.2047 228.419 13.8776 229.839 13.8776C231.26 13.8776 232.446 14.2047 233.4 14.8589C234.371 15.4943 235.1 16.3821 235.586 17.5222C236.091 18.6436 236.343 19.9426 236.343 21.4191V22.0919H226.98C226.998 22.7834 227.316 23.4002 227.933 23.9422C228.549 24.4842 229.381 24.7552 230.428 24.7552C231.474 24.7552 232.325 24.6057 232.979 24.3067C233.633 23.989 234.11 23.7179 234.409 23.4937ZM226.98 19.5127H232.53C232.53 19.1389 232.428 18.7651 232.222 18.3913C232.035 17.9988 231.736 17.6717 231.325 17.41C230.932 17.1484 230.428 17.0176 229.811 17.0176C229.194 17.0176 228.671 17.1484 228.241 17.41C227.83 17.6717 227.512 17.9988 227.288 18.3913C227.082 18.7651 226.98 19.1389 226.98 19.5127Z" fill="#222222"/>
    <path d="M129.759 51.7718V38.6233H133.627L133.768 40.0811C134.179 39.5765 134.702 39.1559 135.338 38.8195C135.973 38.4831 136.721 38.3149 137.58 38.3149C138.627 38.3149 139.459 38.5111 140.075 38.9036C140.692 39.2961 141.15 39.7073 141.449 40.1372C141.991 39.5578 142.645 39.1092 143.412 38.7915C144.197 38.4738 145.01 38.3149 145.851 38.3149C147.514 38.3149 148.794 38.8008 149.692 39.7727C150.589 40.7259 151.037 42.0155 151.037 43.6416V51.7718H147V44.2864C147 43.5201 146.823 42.922 146.468 42.4921C146.131 42.0436 145.617 41.8193 144.926 41.8193C144.159 41.8193 143.533 42.0903 143.047 42.6323C142.58 43.1743 142.346 43.8658 142.346 44.7069V51.7718H138.449V44.2864C138.449 43.5201 138.272 42.922 137.917 42.4921C137.58 42.0436 137.066 41.8193 136.375 41.8193C135.627 41.8193 135.01 42.0903 134.525 42.6323C134.039 43.1743 133.796 43.8658 133.796 44.7069V51.7718H129.759Z" fill="#222222"/>
    <path d="M153.232 36.6889V33.0723H157.549V36.6889H153.232ZM153.372 51.7718V38.6233H157.409V51.7718H153.372Z" fill="#222222"/>
    <path d="M159.787 51.7718V38.6233H163.656L163.796 40.0811C164.207 39.5765 164.73 39.1559 165.366 38.8195C166.001 38.4831 166.749 38.3149 167.609 38.3149C168.655 38.3149 169.487 38.5111 170.104 38.9036C170.72 39.2961 171.178 39.7073 171.477 40.1372C172.019 39.5578 172.674 39.1092 173.44 38.7915C174.225 38.4738 175.038 38.3149 175.879 38.3149C177.542 38.3149 178.823 38.8008 179.72 39.7727C180.617 40.7259 181.065 42.0155 181.065 43.6416V51.7718H177.028V44.2864C177.028 43.5201 176.851 42.922 176.496 42.4921C176.159 42.0436 175.645 41.8193 174.954 41.8193C174.188 41.8193 173.561 42.0903 173.075 42.6323C172.608 43.1743 172.375 43.8658 172.375 44.7069V51.7718H168.478V44.2864C168.478 43.5201 168.3 42.922 167.945 42.4921C167.609 42.0436 167.095 41.8193 166.403 41.8193C165.655 41.8193 165.039 42.0903 164.553 42.6323C164.067 43.1743 163.824 43.8658 163.824 44.7069V51.7718H159.787Z" fill="#222222"/>
    <path d="M182.699 45.1835C182.699 43.8939 182.998 42.7164 183.596 41.6511C184.195 40.5857 185.017 39.7447 186.064 39.1279C187.129 38.4924 188.362 38.1747 189.764 38.1747C191.166 38.1747 192.39 38.4924 193.437 39.1279C194.502 39.7447 195.325 40.5857 195.904 41.6511C196.502 42.7164 196.801 43.8939 196.801 45.1835C196.801 46.4731 196.502 47.6506 195.904 48.7159C195.325 49.7813 194.502 50.6317 193.437 51.2671C192.39 51.9026 191.166 52.2203 189.764 52.2203C188.362 52.2203 187.129 51.9026 186.064 51.2671C185.017 50.6317 184.195 49.7813 183.596 48.7159C182.998 47.6506 182.699 46.4731 182.699 45.1835ZM189.764 48.7159C190.456 48.7159 191.026 48.5477 191.474 48.2113C191.942 47.8749 192.297 47.4357 192.54 46.8936C192.783 46.3516 192.904 45.7816 192.904 45.1835C192.904 44.5854 192.783 44.0247 192.54 43.5014C192.297 42.9594 191.942 42.5202 191.474 42.1837C191.026 41.8473 190.456 41.6791 189.764 41.6791C189.091 41.6791 188.512 41.8473 188.026 42.1837C187.559 42.5202 187.204 42.9594 186.961 43.5014C186.718 44.0247 186.596 44.5854 186.596 45.1835C186.596 45.7816 186.718 46.3516 186.961 46.8936C187.204 47.4357 187.559 47.8749 188.026 48.2113C188.512 48.5477 189.091 48.7159 189.764 48.7159Z" fill="#222222"/>
    <path d="M198.494 51.7718V38.6233H202.363L202.503 40.2774C202.839 39.8288 203.297 39.3989 203.877 38.9877C204.475 38.5766 205.241 38.371 206.175 38.371C206.531 38.371 206.83 38.3897 207.073 38.427C207.334 38.4644 207.587 38.5298 207.83 38.6233L207.185 42.1837C206.774 42.0529 206.288 41.9875 205.727 41.9875C204.774 41.9875 203.998 42.2772 203.4 42.8566C202.821 43.4173 202.531 44.221 202.531 45.2676V51.7718H198.494Z" fill="#222222"/>
    <path d="M208.771 36.6889V33.0723H213.088V36.6889H208.771ZM208.911 51.7718V38.6233H212.948V51.7718H208.911Z" fill="#222222"/>
    <path d="M223.064 51.7718L222.951 50.5382C222.017 51.6222 220.69 52.1642 218.97 52.1642C218.354 52.1642 217.7 52.0428 217.008 51.7998C216.335 51.5755 215.756 51.1643 215.27 50.5662C214.784 49.9682 214.541 49.1458 214.541 48.0991C214.541 47.0712 214.803 46.2021 215.326 45.4919C215.868 44.7817 216.597 44.249 217.513 43.8939C218.428 43.5201 219.456 43.3332 220.596 43.3332C221.064 43.3332 221.531 43.3425 221.998 43.3612C222.484 43.3799 222.802 43.4079 222.951 43.4453V43.165C222.951 42.4921 222.69 42.0155 222.166 41.7352C221.662 41.4361 221.082 41.2866 220.428 41.2866C219.55 41.2866 218.812 41.3988 218.214 41.623C217.615 41.8473 217.111 42.0996 216.7 42.38L215.046 39.9129C215.588 39.483 216.326 39.0905 217.26 38.7354C218.195 38.3616 219.438 38.1747 220.989 38.1747C222.989 38.1747 224.465 38.7167 225.419 39.8008C226.372 40.8661 226.848 42.3052 226.848 44.1182V51.7718H223.064ZM222.951 47.0338V45.9685C222.858 45.9498 222.68 45.9311 222.419 45.9124C222.157 45.875 221.858 45.8563 221.522 45.8563C220.4 45.8563 219.606 46.0152 219.139 46.3329C218.671 46.6507 218.438 47.0992 218.438 47.6786C218.438 48.7626 219.092 49.3047 220.4 49.3047C221.036 49.3047 221.615 49.1084 222.138 48.7159C222.68 48.3234 222.951 47.7627 222.951 47.0338Z" fill="#222222"/>
    <path d="M238.165 51.7718L237.996 50.4541C237.585 50.9214 237.053 51.3232 236.398 51.6596C235.763 51.996 235.034 52.1642 234.212 52.1642C233.146 52.1642 232.174 51.8932 231.296 51.3512C230.436 50.7905 229.745 50.0055 229.221 48.9963C228.717 47.9683 228.465 46.7628 228.465 45.3797C228.465 44.2023 228.67 43.1743 229.081 42.2959C229.492 41.3988 230.034 40.6605 230.707 40.0811C231.399 39.5017 232.146 39.0718 232.95 38.7915C233.754 38.4924 234.548 38.3429 235.333 38.3429C235.969 38.3429 236.464 38.3897 236.819 38.4831C237.193 38.5579 237.557 38.6607 237.912 38.7915V33.0723H241.921V51.7718H238.165ZM237.912 45.8283V42.2398C237.389 41.9221 236.679 41.7632 235.782 41.7632C234.754 41.7632 233.95 42.109 233.371 42.8005C232.81 43.492 232.53 44.3798 232.53 45.4639C232.53 46.417 232.763 47.202 233.23 47.8188C233.716 48.4169 234.417 48.7159 235.333 48.7159C236.249 48.7159 236.903 48.4262 237.296 47.8468C237.707 47.2488 237.912 46.5759 237.912 45.8283Z" fill="#222222"/>
    <path d="M244.232 51.7718V38.6233H248.101L248.213 40.0531C248.643 39.5297 249.213 39.1092 249.923 38.7915C250.634 38.4738 251.363 38.3149 252.11 38.3149C253.605 38.3149 254.802 38.7635 255.699 39.6606C256.596 40.5577 257.044 41.8847 257.044 43.6416V51.7718H253.007V44.2023C253.007 43.4734 252.82 42.894 252.447 42.4641C252.091 42.0342 251.587 41.8193 250.933 41.8193C250.054 41.8193 249.381 42.109 248.914 42.6884C248.466 43.2678 248.241 43.9406 248.241 44.7069V51.7718H244.232Z" fill="#222222"/>
    <path d="M270.011 47.7908L271.665 50.342C271.478 50.4728 271.142 50.6877 270.656 50.9868C270.189 51.2858 269.563 51.5662 268.778 51.8278C267.993 52.0895 267.03 52.2203 265.89 52.2203C264.395 52.2203 263.105 51.9213 262.021 51.3232C260.937 50.7251 260.105 49.8934 259.526 48.8281C258.947 47.7627 258.657 46.5385 258.657 45.1555C258.657 43.9219 258.919 42.7725 259.442 41.7071C259.984 40.6418 260.76 39.7914 261.769 39.1559C262.797 38.5018 264.021 38.1747 265.442 38.1747C266.862 38.1747 268.049 38.5018 269.002 39.1559C269.974 39.7914 270.703 40.6792 271.189 41.8193C271.693 42.9407 271.946 44.2396 271.946 45.7162V46.389H262.582C262.601 47.0805 262.918 47.6973 263.535 48.2393C264.152 48.7813 264.984 49.0523 266.03 49.0523C267.077 49.0523 267.927 48.9028 268.581 48.6038C269.236 48.2861 269.712 48.015 270.011 47.7908ZM262.582 43.8098H268.133C268.133 43.436 268.03 43.0622 267.824 42.6884C267.638 42.2959 267.339 41.9688 266.927 41.7071C266.535 41.4455 266.03 41.3147 265.413 41.3147C264.797 41.3147 264.273 41.4455 263.844 41.7071C263.432 41.9688 263.115 42.2959 262.89 42.6884C262.685 43.0622 262.582 43.436 262.582 43.8098Z" fill="#222222"/>
    <path d="M129.787 76.0688V62.9204H133.655L133.768 64.3502C134.197 63.8268 134.768 63.4063 135.478 63.0886C136.188 62.7709 136.917 62.612 137.664 62.612C139.16 62.612 140.356 63.0606 141.253 63.9577C142.15 64.8548 142.599 66.1818 142.599 67.9387V76.0688H138.562V68.4994C138.562 67.7705 138.375 67.1911 138.001 66.7612C137.646 66.3313 137.141 66.1164 136.487 66.1164C135.609 66.1164 134.936 66.4061 134.468 66.9855C134.02 67.5649 133.796 68.2377 133.796 69.004V76.0688H129.787Z" fill="#222222"/>
    <path d="M152.538 76.0688L152.426 74.8353C151.491 75.9193 150.164 76.4613 148.445 76.4613C147.828 76.4613 147.174 76.3399 146.482 76.0969C145.809 75.8726 145.23 75.4614 144.744 74.8633C144.258 74.2653 144.015 73.4429 144.015 72.3962C144.015 71.3683 144.277 70.4992 144.8 69.789C145.342 69.0788 146.071 68.5461 146.987 68.191C147.903 67.8172 148.931 67.6303 150.071 67.6303C150.538 67.6303 151.005 67.6396 151.472 67.6583C151.958 67.677 152.276 67.705 152.426 67.7424V67.4621C152.426 66.7892 152.164 66.3126 151.641 66.0323C151.136 65.7332 150.557 65.5837 149.902 65.5837C149.024 65.5837 148.286 65.6959 147.688 65.9201C147.09 66.1444 146.585 66.3967 146.174 66.6771L144.52 64.21C145.062 63.7801 145.8 63.3876 146.734 63.0325C147.669 62.6587 148.912 62.4718 150.463 62.4718C152.463 62.4718 153.94 63.0138 154.893 64.0979C155.846 65.1632 156.322 66.6023 156.322 68.4153V76.0688H152.538ZM152.426 71.3309V70.2656C152.332 70.2469 152.155 70.2282 151.893 70.2095C151.631 70.1721 151.332 70.1534 150.996 70.1534C149.874 70.1534 149.08 70.3123 148.613 70.63C148.146 70.9478 147.912 71.3963 147.912 71.9757C147.912 73.0597 148.566 73.6018 149.874 73.6018C150.51 73.6018 151.089 73.4055 151.613 73.013C152.155 72.6205 152.426 72.0598 152.426 71.3309Z" fill="#222222"/>
    <path d="M167.639 76.0688L167.471 74.7512C167.059 75.2184 166.527 75.6203 165.873 75.9567C165.237 76.2931 164.508 76.4613 163.686 76.4613C162.621 76.4613 161.649 76.1903 160.77 75.6483C159.91 75.0876 159.219 74.3026 158.696 73.2934C158.191 72.2654 157.939 71.0599 157.939 69.6768C157.939 68.4994 158.144 67.4714 158.555 66.593C158.967 65.6959 159.509 64.9576 160.181 64.3782C160.873 63.7988 161.621 63.3689 162.424 63.0886C163.228 62.7895 164.022 62.64 164.807 62.64C165.443 62.64 165.938 62.6868 166.293 62.7802C166.667 62.855 167.031 62.9578 167.387 63.0886V57.3694H171.396V76.0688H167.639ZM167.387 70.1254V66.5369C166.863 66.2192 166.153 66.0603 165.256 66.0603C164.228 66.0603 163.424 66.4061 162.845 67.0976C162.284 67.7891 162.004 68.6769 162.004 69.7609C162.004 70.7141 162.237 71.4991 162.705 72.1159C163.191 72.714 163.891 73.013 164.807 73.013C165.723 73.013 166.377 72.7233 166.77 72.1439C167.181 71.5458 167.387 70.873 167.387 70.1254Z" fill="#222222"/>
    <path d="M181.416 76.0688L181.304 74.8353C180.369 75.9193 179.042 76.4613 177.323 76.4613C176.706 76.4613 176.052 76.3399 175.361 76.0969C174.688 75.8726 174.108 75.4614 173.622 74.8633C173.136 74.2653 172.893 73.4429 172.893 72.3962C172.893 71.3683 173.155 70.4992 173.678 69.789C174.22 69.0788 174.949 68.5461 175.865 68.191C176.781 67.8172 177.809 67.6303 178.949 67.6303C179.416 67.6303 179.884 67.6396 180.351 67.6583C180.837 67.677 181.154 67.705 181.304 67.7424V67.4621C181.304 66.7892 181.042 66.3126 180.519 66.0323C180.014 65.7332 179.435 65.5837 178.781 65.5837C177.902 65.5837 177.164 65.6959 176.566 65.9201C175.968 66.1444 175.463 66.3967 175.052 66.6771L173.398 64.21C173.94 63.7801 174.678 63.3876 175.613 63.0325C176.547 62.6587 177.79 62.4718 179.342 62.4718C181.341 62.4718 182.818 63.0138 183.771 64.0979C184.724 65.1632 185.201 66.6023 185.201 68.4153V76.0688H181.416ZM181.304 71.3309V70.2656C181.211 70.2469 181.033 70.2282 180.771 70.2095C180.51 70.1721 180.211 70.1534 179.874 70.1534C178.753 70.1534 177.958 70.3123 177.491 70.63C177.024 70.9478 176.79 71.3963 176.79 71.9757C176.79 73.0597 177.444 73.6018 178.753 73.6018C179.388 73.6018 179.968 73.4055 180.491 73.013C181.033 72.6205 181.304 72.0598 181.304 71.3309Z" fill="#222222"/>
    <path d="M187.434 76.0688V62.9204H191.303L191.415 64.3502C191.845 63.8268 192.415 63.4063 193.125 63.0886C193.835 62.7709 194.564 62.612 195.312 62.612C196.807 62.612 198.003 63.0606 198.9 63.9577C199.797 64.8548 200.246 66.1818 200.246 67.9387V76.0688H196.209V68.4994C196.209 67.7705 196.022 67.1911 195.648 66.7612C195.293 66.3313 194.788 66.1164 194.134 66.1164C193.256 66.1164 192.583 66.4061 192.116 66.9855C191.667 67.5649 191.443 68.2377 191.443 69.004V76.0688H187.434Z" fill="#222222"/>
    <path d="M213.213 72.0879L214.867 74.6391C214.68 74.7699 214.343 74.9848 213.858 75.2839C213.39 75.5829 212.764 75.8633 211.979 76.1249C211.194 76.3866 210.232 76.5174 209.092 76.5174C207.596 76.5174 206.307 76.2184 205.223 75.6203C204.139 75.0222 203.307 74.1905 202.728 73.1252C202.148 72.0598 201.859 70.8356 201.859 69.4526C201.859 68.219 202.12 67.0696 202.644 66.0042C203.186 64.9389 203.961 64.0885 204.97 63.453C205.998 62.7989 207.223 62.4718 208.643 62.4718C210.063 62.4718 211.25 62.7989 212.203 63.453C213.175 64.0885 213.904 64.9763 214.39 66.1164C214.895 67.2378 215.147 68.5367 215.147 70.0133V70.6861H205.783C205.802 71.3776 206.12 71.9944 206.737 72.5364C207.353 73.0784 208.185 73.3494 209.232 73.3494C210.278 73.3494 211.129 73.1999 211.783 72.9009C212.437 72.5831 212.914 72.3121 213.213 72.0879ZM205.783 68.1069H211.334C211.334 67.7331 211.232 67.3593 211.026 66.9855C210.839 66.593 210.54 66.2659 210.129 66.0042C209.736 65.7426 209.232 65.6117 208.615 65.6117C207.998 65.6117 207.475 65.7426 207.045 66.0042C206.634 66.2659 206.316 66.593 206.092 66.9855C205.886 67.3593 205.783 67.7331 205.783 68.1069ZM206.905 60.9299L208.251 56.9489H212.232L209.877 60.9299H206.905Z" fill="#222222"/>
    <path d="M230.225 76.0688L230.057 74.7512C229.646 75.2184 229.113 75.6203 228.459 75.9567C227.823 76.2931 227.094 76.4613 226.272 76.4613C225.207 76.4613 224.235 76.1903 223.356 75.6483C222.497 75.0876 221.805 74.3026 221.282 73.2934C220.777 72.2654 220.525 71.0599 220.525 69.6768C220.525 68.4994 220.73 67.4714 221.142 66.593C221.553 65.6959 222.095 64.9576 222.768 64.3782C223.459 63.7988 224.207 63.3689 225.01 63.0886C225.814 62.7895 226.608 62.64 227.393 62.64C228.029 62.64 228.524 62.6868 228.879 62.7802C229.253 62.855 229.618 62.9578 229.973 63.0886V57.3694H233.982V76.0688H230.225ZM229.973 70.1254V66.5369C229.449 66.2192 228.739 66.0603 227.842 66.0603C226.814 66.0603 226.01 66.4061 225.431 67.0976C224.87 67.7891 224.59 68.6769 224.59 69.7609C224.59 70.7141 224.824 71.4991 225.291 72.1159C225.777 72.714 226.478 73.013 227.393 73.013C228.309 73.013 228.963 72.7233 229.356 72.1439C229.767 71.5458 229.973 70.873 229.973 70.1254Z" fill="#222222"/>
    <path d="M247.03 72.0879L248.684 74.6391C248.497 74.7699 248.161 74.9848 247.675 75.2839C247.208 75.5829 246.582 75.8633 245.797 76.1249C245.012 76.3866 244.049 76.5174 242.909 76.5174C241.414 76.5174 240.124 76.2184 239.04 75.6203C237.956 75.0222 237.124 74.1905 236.545 73.1252C235.966 72.0598 235.676 70.8356 235.676 69.4526C235.676 68.219 235.938 67.0696 236.461 66.0042C237.003 64.9389 237.779 64.0885 238.788 63.453C239.816 62.7989 241.04 62.4718 242.46 62.4718C243.881 62.4718 245.068 62.7989 246.021 63.453C246.993 64.0885 247.722 64.9763 248.208 66.1164C248.712 67.2378 248.965 68.5367 248.965 70.0133V70.6861H239.601C239.619 71.3776 239.937 71.9944 240.554 72.5364C241.171 73.0784 242.002 73.3494 243.049 73.3494C244.096 73.3494 244.946 73.1999 245.6 72.9009C246.254 72.5831 246.731 72.3121 247.03 72.0879ZM239.601 68.1069H245.152C245.152 67.7331 245.049 67.3593 244.843 66.9855C244.656 66.593 244.357 66.2659 243.946 66.0042C243.554 65.7426 243.049 65.6117 242.432 65.6117C241.816 65.6117 241.292 65.7426 240.862 66.0042C240.451 66.2659 240.133 66.593 239.909 66.9855C239.704 67.3593 239.601 67.7331 239.601 68.1069Z" fill="#222222"/>
    <path d="M251.548 71.0506V66.0883H249.474V62.9204H251.548V58.603H255.585V62.9204H258.977V66.0883H255.585V71.2748C255.585 71.9103 255.707 72.4056 255.95 72.7607C256.211 73.0971 256.613 73.2653 257.155 73.2653C257.566 73.2653 257.921 73.1999 258.22 73.0691C258.52 72.9196 258.8 72.7514 259.062 72.5645L260.688 75.0315C259.435 76.0408 258.052 76.5454 256.538 76.5454C255.286 76.5454 254.296 76.3118 253.567 75.8446C252.838 75.3773 252.314 74.7325 251.997 73.9101C251.698 73.0878 251.548 72.1346 251.548 71.0506Z" fill="#222222"/>
    <path d="M261.556 60.986V57.3694H265.873V60.986H261.556ZM261.696 76.0688V62.9204H265.733V76.0688H261.696Z" fill="#222222"/>
    <path d="M137.496 100.366L137.384 99.1324C136.45 100.216 135.123 100.758 133.403 100.758C132.786 100.758 132.132 100.637 131.441 100.394C130.768 100.17 130.188 99.7585 129.703 99.1604C129.217 98.5624 128.974 97.74 128.974 96.6933C128.974 95.6654 129.235 94.7963 129.759 94.0861C130.301 93.3759 131.029 92.8432 131.945 92.4881C132.861 92.1143 133.889 91.9274 135.029 91.9274C135.496 91.9274 135.964 91.9367 136.431 91.9554C136.917 91.9741 137.235 92.0021 137.384 92.0395V91.7592C137.384 91.0863 137.122 90.6097 136.599 90.3294C136.095 90.0303 135.515 89.8808 134.861 89.8808C133.983 89.8808 133.244 89.993 132.646 90.2172C132.048 90.4415 131.543 90.6938 131.132 90.9742L129.478 88.5071C130.02 88.0772 130.758 87.6847 131.693 87.3296C132.627 86.9558 133.87 86.7689 135.422 86.7689C137.422 86.7689 138.898 87.3109 139.851 88.395C140.804 89.4603 141.281 90.8994 141.281 92.7124V100.366H137.496ZM137.384 95.628V94.5627C137.291 94.544 137.113 94.5253 136.851 94.5066C136.59 94.4692 136.291 94.4505 135.954 94.4505C134.833 94.4505 134.039 94.6094 133.571 94.9271C133.104 95.2449 132.87 95.6934 132.87 96.2728C132.87 97.3568 133.525 97.8988 134.833 97.8988C135.468 97.8988 136.048 97.7026 136.571 97.3101C137.113 96.9176 137.384 96.3569 137.384 95.628Z" fill="#222222"/>
    <path d="M157.859 93.4973V90.0771H165.064V98.1792C164.092 99.0016 162.952 99.6464 161.643 100.114C160.354 100.581 158.877 100.815 157.214 100.815C155.176 100.815 153.429 100.403 151.971 99.581C150.513 98.7399 149.392 97.5905 148.607 96.1326C147.841 94.6561 147.457 92.9647 147.457 91.0583C147.457 89.6565 147.691 88.3576 148.158 87.1614C148.626 85.9652 149.289 84.9186 150.149 84.0215C151.009 83.1243 152.027 82.4328 153.205 81.9469C154.401 81.4422 155.709 81.1899 157.13 81.1899C158.83 81.1899 160.326 81.5077 161.615 82.1431C162.905 82.7599 163.961 83.629 164.783 84.7504L161.924 87.4698C161.344 86.7596 160.69 86.1802 159.961 85.7316C159.232 85.2831 158.344 85.0588 157.298 85.0588C156.158 85.0588 155.176 85.3298 154.354 85.8718C153.55 86.4138 152.934 87.1427 152.504 88.0585C152.074 88.9556 151.859 89.9556 151.859 91.0583C151.859 92.2544 152.102 93.3011 152.588 94.1982C153.093 95.0767 153.765 95.7588 154.606 96.2448C155.447 96.7307 156.401 96.9737 157.466 96.9737C158.214 96.9737 158.896 96.8896 159.513 96.7214C160.129 96.5345 160.681 96.2448 161.167 95.8523V93.4973H157.859Z" fill="#222222"/>
    <path d="M166.512 105.216L168.138 102.441C168.362 102.609 168.614 102.758 168.895 102.889C169.175 103.02 169.465 103.085 169.764 103.085C170.194 103.085 170.558 102.945 170.857 102.665C171.156 102.403 171.427 101.945 171.67 101.291L172.063 100.226L166.063 87.2175H170.661L173.941 95.5159L176.913 87.2175H181.202L175.819 100.282C175.52 101.011 175.221 101.73 174.922 102.441C174.623 103.151 174.268 103.796 173.857 104.375C173.464 104.973 172.96 105.44 172.343 105.777C171.726 106.132 170.96 106.309 170.044 106.309C169.334 106.309 168.689 106.216 168.11 106.029C167.53 105.842 166.998 105.571 166.512 105.216Z" fill="#222222"/>
    <path d="M182.122 100.366V87.2175H185.991L186.131 88.6753C186.542 88.1707 187.065 87.7501 187.701 87.4137C188.336 87.0773 189.084 86.9091 189.944 86.9091C190.99 86.9091 191.822 87.1053 192.439 87.4978C193.056 87.8903 193.513 88.3015 193.812 88.7314C194.354 88.152 195.009 87.7034 195.775 87.3857C196.56 87.068 197.373 86.9091 198.214 86.9091C199.877 86.9091 201.158 87.395 202.055 88.3669C202.952 89.3201 203.4 90.6097 203.4 92.2358V100.366H199.363V92.8806C199.363 92.1143 199.186 91.5162 198.831 91.0863C198.494 90.6378 197.98 90.4135 197.289 90.4135C196.523 90.4135 195.896 90.6845 195.41 91.2265C194.943 91.7685 194.71 92.46 194.71 93.3011V100.366H190.813V92.8806C190.813 92.1143 190.635 91.5162 190.28 91.0863C189.944 90.6378 189.43 90.4135 188.738 90.4135C187.99 90.4135 187.374 90.6845 186.888 91.2265C186.402 91.7685 186.159 92.46 186.159 93.3011V100.366H182.122Z" fill="#222222"/>
    <path d="M205.651 100.366V87.2175H209.52L209.632 88.6473C210.062 88.1239 210.632 87.7034 211.342 87.3857C212.053 87.068 212.781 86.9091 213.529 86.9091C215.024 86.9091 216.22 87.3576 217.118 88.2548C218.015 89.1519 218.463 90.4789 218.463 92.2358V100.366H214.426V92.7965C214.426 92.0676 214.239 91.4882 213.865 91.0583C213.51 90.6284 213.006 90.4135 212.352 90.4135C211.473 90.4135 210.8 90.7032 210.333 91.2826C209.884 91.862 209.66 92.5348 209.66 93.3011V100.366H205.651Z" fill="#222222"/>
    <path d="M228.402 100.366L228.29 99.1324C227.356 100.216 226.029 100.758 224.309 100.758C223.692 100.758 223.038 100.637 222.347 100.394C221.674 100.17 221.094 99.7585 220.609 99.1604C220.123 98.5624 219.88 97.74 219.88 96.6933C219.88 95.6654 220.141 94.7963 220.665 94.0861C221.207 93.3759 221.936 92.8432 222.851 92.4881C223.767 92.1143 224.795 91.9274 225.935 91.9274C226.402 91.9274 226.87 91.9367 227.337 91.9554C227.823 91.9741 228.141 92.0021 228.29 92.0395V91.7592C228.29 91.0863 228.029 90.6097 227.505 90.3294C227.001 90.0303 226.421 89.8808 225.767 89.8808C224.889 89.8808 224.15 89.993 223.552 90.2172C222.954 90.4415 222.45 90.6938 222.038 90.9742L220.384 88.5071C220.926 88.0772 221.665 87.6847 222.599 87.3296C223.534 86.9558 224.776 86.7689 226.328 86.7689C228.328 86.7689 229.804 87.3109 230.757 88.395C231.71 89.4603 232.187 90.8994 232.187 92.7124V100.366H228.402ZM228.29 95.628V94.5627C228.197 94.544 228.019 94.5253 227.757 94.5066C227.496 94.4692 227.197 94.4505 226.86 94.4505C225.739 94.4505 224.945 94.6094 224.477 94.9271C224.01 95.2449 223.777 95.6934 223.777 96.2728C223.777 97.3568 224.431 97.8988 225.739 97.8988C226.374 97.8988 226.954 97.7026 227.477 97.3101C228.019 96.9176 228.29 96.3569 228.29 95.628ZM224.618 85.227L225.963 81.246H229.944L227.589 85.227H224.618Z" fill="#222222"/>
    <path d="M234.028 100.366V97.6465L240.476 90.4696H234.308V87.2175H245.578V89.993L239.102 97.198H245.606V100.366H234.028Z" fill="#222222"/>
    <path d="M247.407 85.283V81.6665H251.724V85.283H247.407ZM247.547 100.366V87.2175H251.584V100.366H247.547Z" fill="#222222"/>
    <path d="M253.906 95.3757V87.2175H257.943V94.787C257.943 95.5346 258.12 96.1233 258.475 96.5532C258.849 96.983 259.391 97.198 260.101 97.198C260.924 97.198 261.559 96.9083 262.008 96.3289C262.456 95.7308 262.681 95.058 262.681 94.3104V87.2175H266.69V100.366H262.821L262.709 98.9642C262.279 99.4688 261.709 99.8893 260.999 100.226C260.307 100.543 259.578 100.702 258.812 100.702C257.317 100.702 256.12 100.254 255.223 99.3567C254.345 98.4596 253.906 97.1326 253.906 95.3757Z" fill="#222222"/>
    <path d="M268.976 100.366V87.2175H272.845L272.985 88.6753C273.396 88.1707 273.919 87.7501 274.555 87.4137C275.19 87.0773 275.938 86.9091 276.798 86.9091C277.844 86.9091 278.676 87.1053 279.293 87.4978C279.91 87.8903 280.367 88.3015 280.667 88.7314C281.209 88.152 281.863 87.7034 282.629 87.3857C283.414 87.068 284.227 86.9091 285.068 86.9091C286.731 86.9091 288.012 87.395 288.909 88.3669C289.806 89.3201 290.255 90.6097 290.255 92.2358V100.366H286.217V92.8806C286.217 92.1143 286.04 91.5162 285.685 91.0863C285.348 90.6378 284.834 90.4135 284.143 90.4135C283.377 90.4135 282.75 90.6845 282.265 91.2265C281.797 91.7685 281.564 92.46 281.564 93.3011V100.366H277.667V92.8806C277.667 92.1143 277.489 91.5162 277.134 91.0863C276.798 90.6378 276.284 90.4135 275.592 90.4135C274.845 90.4135 274.228 90.6845 273.742 91.2265C273.256 91.7685 273.013 92.46 273.013 93.3011V100.366H268.976Z" fill="#222222"/>
    <path d="M102.217 55.2072L102.223 55.7164L102.22 56.2716L102.215 56.8268L102.204 57.382L102.187 57.9372L102.163 58.4897L102.135 59.0449L102.103 59.5974L102.062 60.1499L102.018 60.7025L101.969 61.2523L101.914 61.802L101.851 62.3518L101.786 62.9016L101.715 63.4487L101.636 63.9958L101.554 64.5429L101.466 65.0873L101.374 65.629L101.275 66.1706L101.172 66.7123L101.062 67.2513L100.948 67.7902L100.828 68.3265L100.705 68.8627L100.574 69.3963L100.437 69.9298L100.298 70.4607L100.151 70.9888L100 71.5169L99.8449 72.0424L99.6838 72.5651L99.5173 73.0878L99.3453 73.6051L99.1678 74.1251L98.9876 74.6397L98.7993 75.1543L98.6082 75.6661L98.4116 76.1753L98.2096 76.6818L98.0048 77.1855L97.7919 77.6893L97.5762 78.1876L97.3551 78.686L97.1285 79.1816L96.8992 79.6745L96.6617 80.1647L96.4242 80.6522L96.1785 81.137L95.9273 81.6191L95.6734 82.0985L95.4141 82.5752L95.152 83.0464L94.8844 83.5177L94.6114 83.9862L94.333 84.4493L94.0518 84.9125L93.7651 85.3702L93.4757 85.8279L93.1809 86.2802L92.8806 86.7271L92.5776 87.174L92.2691 87.6154L91.9579 88.0569L91.6412 88.4929L91.3218 88.9235L90.9969 89.3542L90.6693 89.7794L90.3362 90.2019L90.0004 90.619L89.6592 91.0334L89.3152 91.445L88.9658 91.854L88.6136 92.2575L88.256 92.6557L87.8983 93.0538L87.5325 93.4438L87.1667 93.8338L86.7954 94.2184L86.4214 94.5976L86.0419 94.974L85.6597 95.3478L85.2748 95.7161L84.8871 96.0817L84.494 96.442L84.0981 96.7968L83.6996 97.1488L83.2955 97.4982L82.8915 97.8395L82.482 98.1807L82.0697 98.5138L81.6548 98.8443L81.2371 99.172L80.8167 99.4943L80.3935 99.8112L79.9649 100.123L79.5363 100.431L79.1022 100.737L78.6681 101.035L78.2286 101.331L77.7891 101.62L77.3441 101.907L76.8991 102.186L76.4486 102.463L75.9982 102.736L75.545 103.002L75.0864 103.264L74.6277 103.522L74.1691 103.776L73.705 104.023L73.2409 104.266L72.7713 104.505L72.3017 104.738L71.8294 104.965L71.3572 105.19L70.8794 105.409L70.4016 105.623L69.9239 105.832L69.4407 106.035L68.9575 106.235L68.4743 106.428L67.9856 106.617L67.4996 106.801L67.0082 106.98L66.5168 107.154L66.0254 107.321L65.5313 107.487L65.0344 107.644L64.5376 107.798L64.0407 107.947L63.5411 108.091L63.0388 108.229L62.5365 108.361L62.0341 108.489L61.5318 108.611L61.0268 108.73L60.5217 108.841L60.0139 108.949L59.5062 109.049L58.9984 109.147L58.4906 109.239L57.9801 109.326L57.4696 109.407L56.959 109.483L56.4485 109.553L55.938 109.618L55.4248 109.678L54.9115 109.735L54.401 109.783L53.8878 109.829L53.3745 109.867L52.8613 109.903L52.3481 109.932L51.8348 109.957L51.3216 109.973L50.8083 109.986L50.2951 109.995L49.7846 110L49.2713 109.997L48.7581 109.989L48.2476 109.976L47.7343 109.959L47.2238 109.935L46.7133 109.908L46.2028 109.875L45.695 109.835L45.1845 109.791L44.6767 109.743L44.1689 109.689L43.6639 109.632L43.1588 109.567L42.6538 109.499L42.1487 109.423L41.6464 109.345L41.1441 109.261L40.6445 109.171L40.1449 109.076L39.6453 108.976L39.1484 108.873L38.6516 108.765L38.1574 108.649L37.666 108.529L37.1746 108.405L36.6832 108.277L36.1945 108.142L35.7086 108.004L35.2227 107.86L34.7395 107.711L34.2562 107.557L33.7758 107.4L33.298 107.237L32.823 107.07L32.348 106.896L31.8757 106.72L31.4034 106.539L30.9365 106.352L30.4697 106.16L30.0056 105.965L29.5415 105.764L29.0829 105.558L28.6242 105.35L28.1683 105.136L27.7178 104.916L27.2674 104.694L26.8169 104.467L26.372 104.234L25.9297 103.998L25.4902 103.757L25.0506 103.511L24.6166 103.262L24.1825 103.01L23.7539 102.752L23.328 102.49L22.9021 102.222L22.4817 101.953L22.064 101.677L21.649 101.401L21.2368 101.117L20.8273 100.829L20.4205 100.54L20.0165 100.244L19.6179 99.9466L19.2193 99.6432L18.8262 99.3372L18.4358 99.0284L18.0481 98.7143L17.6659 98.3947L17.2837 98.0751L16.907 97.7501L16.533 97.4197L16.1644 97.0893L15.7959 96.7534L15.4328 96.4122L15.0751 96.0709L14.7175 95.7242L14.3653 95.3749L14.0159 95.0201L13.6719 94.6653L13.3307 94.3051L12.9921 93.9421L12.6591 93.5738L12.3288 93.2055L12.0039 92.8344L11.6817 92.458L11.3623 92.0788L11.0484 91.6969L10.7372 91.3123L10.4314 90.925L10.1284 90.5323L9.83079 90.1396L9.53594 89.7442L9.24656 89.3461L8.95991 88.9425L8.67872 88.539L8.40026 88.13L8.12726 87.721L7.85699 87.3094L7.59217 86.895L7.33009 86.4779L7.07347 86.0581L6.82231 85.6356L6.57388 85.2104L6.33091 84.7852L6.09067 84.3573L5.85588 83.9239L5.62656 83.4933L5.39997 83.0573L5.17884 82.6185L4.96044 82.1797L4.7475 81.7383L4.54002 81.2968L4.33527 80.8499L4.13597 80.4031L3.94214 79.9562L3.75104 79.5039L3.5654 79.0543L3.38522 78.5993L3.2105 78.1443L3.03851 77.6866L2.87198 77.2289L2.70818 76.7684L2.54983 76.308L2.39695 75.8449L2.24953 75.3818L2.10484 74.9159L1.96561 74.4501L1.83184 73.9842L1.7008 73.5157L1.57795 73.0444L1.45783 72.5759L1.34044 72.1019L1.23124 71.6307L1.12477 71.1567L1.02376 70.6828L0.925475 70.2088L0.835385 69.7321L0.748024 69.2555L0.666124 68.7788L0.586953 68.3021L0.515973 67.8254L0.447723 67.3461L0.384932 66.8667L0.327602 66.3873L0.273002 65.9079L0.223861 65.4285L0.180181 64.9492L0.141961 64.4698L0.106471 63.9877L0.0764404 63.5083L0.0518703 63.0289L0.0327602 62.5468L0.0163801 62.0675L0.00546003 61.5854L0 61.106V60.6266L0.00273002 60.1472L0.0245701 59.1885L0.0436803 58.7091L0.0655204 58.2324L0.0955506 57.7531L0.125581 57.2764L0.163801 56.7997L0.204751 56.3257L0.251161 55.8491L0.303032 55.3751L0.357632 54.9011L0.417692 54.4299L0.483213 53.9559L0.554193 53.4847L0.627904 53.0161L0.707074 52.5476L0.791705 52.079L0.879065 51.6105L0.971886 51.1447L1.07017 50.6815L1.17118 50.2184L1.27765 49.7553L1.38958 49.2948L1.50424 48.8371L1.62436 48.3794L1.74721 47.9217L1.87825 47.4667L2.00929 47.0144L2.14852 46.5621L2.29048 46.1125L2.4379 45.6629L2.58805 45.2161L2.74367 44.7719L2.90201 44.3277L3.06581 43.889L3.23507 43.4475L3.40706 43.0114L3.58451 42.5754L3.76469 42.1421L3.95033 41.7114L4.1387 41.2835L4.33254 40.8556L4.53183 40.4304L4.73112 40.0079L4.9386 39.5881L5.14881 39.171L5.36175 38.7539L5.58015 38.3422L5.80128 37.9306L6.02787 37.5216L6.2572 37.1181L6.48925 36.7145L6.72676 36.3137L6.96973 35.9156L7.21543 35.5201L7.46386 35.1274L7.71502 34.7374L7.97165 34.3501L8.231 33.9655L8.49581 33.5864L8.76335 33.2072L9.03362 32.8307L9.30935 32.4597L9.58782 32.0886L9.86901 31.723L10.1529 31.3601L10.4423 30.9999L10.7344 30.6424L11.0293 30.2876L11.3268 29.9355L11.6299 29.5888L11.9356 29.2449L12.2441 28.9036L12.5553 28.5651L12.8693 28.2319L13.1887 27.8988L13.5108 27.5711L13.833 27.2488L14.1606 26.9265L14.4909 26.6096L14.824 26.2955L15.1598 25.9867L15.501 25.6807L15.8423 25.3773L16.1863 25.0767L16.533 24.7815L16.8851 24.489L17.2373 24.2019L17.5922 23.9175L17.9499 23.6358L18.3102 23.3596L18.676 23.0861L19.0419 22.8152L19.4077 22.5498L19.779 22.2898L20.153 22.0325L20.527 21.7779L20.9065 21.5287L21.2859 21.2823L21.6681 21.0412L22.0531 20.8029L22.438 20.57L22.8284 20.3398L23.2188 20.1123L24.005 19.6735L24.4036 19.4623L24.7995 19.251L25.2008 19.0479L25.6021 18.8448L26.0061 18.6498L26.4129 18.4575L26.8197 18.2679L27.2292 18.0837L27.6387 17.905L28.0509 17.7289L28.4659 17.5583L28.8808 17.3904L29.2958 17.2279L29.7135 17.0708L30.1339 16.9164L30.5543 16.7675L30.9748 16.6212L31.3979 16.4804L31.8238 16.3449L32.2469 16.2122L32.6728 16.0849L33.1014 15.9604L33.5301 15.8412L33.9587 15.7274L34.3873 15.6164L34.8186 15.5108L35.25 15.4106L35.684 15.3131L36.1154 15.221L36.5495 15.1343L36.9835 15.0504L37.4203 14.9718L37.8544 14.896L38.2912 14.8256L38.728 14.7606L39.1648 14.6983L39.6016 14.6414L40.0384 14.5899L40.4779 14.5412L40.9147 14.4978L41.3516 14.4599L41.7911 14.4247L42.2306 14.3949L42.6674 14.3706L43.1069 14.3489L43.5438 14.3326L43.9833 14.3218L44.4201 14.3137L44.8569 14.311H45.2964L45.7332 14.3164L46.17 14.3272L46.6068 14.3408L47.0436 14.3597L47.4804 14.3841L47.9145 14.4112L48.3486 14.4437L48.7827 14.4789L49.2167 14.5222L49.6508 14.5656L50.0821 14.617L50.5135 14.6712L50.9448 14.7281L51.3734 14.7903L51.8021 14.8581L52.2307 14.9285L52.6593 15.0043L53.0852 15.0856L53.5083 15.1695L53.9342 15.2589L54.3573 15.351L54.7778 15.4485L55.1982 15.5487L55.6159 15.6543L56.0336 15.7626L56.4513 15.8764L56.8662 15.9956L57.2812 16.1174L57.6934 16.242L58.1029 16.372L58.5124 16.5074L58.9192 16.6456L59.326 16.7891L59.73 16.9354L60.1313 17.0843L60.5326 17.2387L60.9312 17.3985L61.3298 17.561L61.7257 17.7262L62.1188 17.8968L62.5092 18.0702L62.8996 18.2489L63.2872 18.4304L63.6722 18.6173L64.0571 18.8068L64.4366 18.9991L64.816 19.1968L65.1928 19.3973L65.5695 19.6004L65.9408 19.8089L66.3121 20.0202L66.6806 20.2369L67.0437 20.4535L67.4068 20.6783L67.7672 20.9031L68.1275 21.1333L68.4824 21.3662L68.8346 21.6019L69.1868 21.8429L69.5335 22.0867L69.8802 22.3331L70.2215 22.5823L70.5627 22.8342L70.8985 23.0915L71.2343 23.3515L71.5674 23.6142L71.895 23.8823L72.2198 24.1504L72.5447 24.424L72.8641 24.7002L73.1808 24.9792L73.4975 25.2609L73.8087 25.5452L74.1172 25.8323L74.4202 26.1248L74.7233 26.4173L75.0236 26.7153L75.3184 27.0132L75.6105 27.3165L75.8999 27.6226L76.1866 27.9286L76.4705 28.2401L76.7517 28.5515L77.0274 28.8684L77.3004 29.188L77.5707 29.5076L77.8382 29.8326L78.1003 30.1576L78.3596 30.4853L78.6163 30.8157L78.8702 31.1515L79.1186 31.4847L79.3643 31.8232L79.6073 32.1645L79.8475 32.5084L80.0823 32.8524L80.3143 33.1991L80.5409 33.5484L80.7675 33.8978L80.9886 34.2526L81.2043 34.6074L81.4173 34.9649L81.6302 35.3224L81.835 35.6853L82.037 36.0483L82.2363 36.4112L82.4328 36.7795L82.6239 37.1479L82.8096 37.5162L82.9952 37.8872L83.1727 38.261L83.3501 38.6375L83.5221 39.0139L83.6914 39.3904L83.8552 39.7695L84.0162 40.1514L84.1719 40.5333L84.3247 40.9179L84.4749 41.3025L84.6196 41.6871L84.7615 42.0744L84.898 42.4644L85.0318 42.8544L85.1601 43.2444L85.2857 43.6344L85.4085 44.0298L85.5259 44.4225L85.6379 44.8179L85.7471 45.2133L85.8535 45.6088L85.9546 46.0069L86.0528 46.405L86.1456 46.8032L86.2357 47.204L86.3204 47.6021L86.4023 48.003L86.4787 48.4065L86.5524 48.8073L86.6207 49.2082L86.6862 49.6117L86.749 50.0153L86.8063 50.4188L86.8582 50.8224L86.9073 51.2259L86.951 51.6322L86.992 52.0357L87.0302 52.442L87.0629 52.8455L87.0902 53.249L87.1148 53.6553L87.1366 54.0616L87.153 54.4651L87.1667 54.8686L87.1749 55.2749L87.1803 55.6784V56.0847L87.1749 56.4882L87.1694 56.8918L87.1585 57.2953L87.1421 57.6962L87.123 58.0997L87.0984 58.5033L87.0711 58.9041L87.0384 59.3049L87.0056 59.7058L86.9647 60.1039L86.921 60.5047L86.8746 60.9029L86.8227 61.301L86.7681 61.6991L86.708 62.0946L86.6452 62.49L86.5797 62.8827L86.5087 63.2781L86.435 63.6708L86.3559 64.0608L86.274 64.4508L86.1866 64.8408L86.0992 65.2281L86.0037 65.6154L85.9054 66.0027L85.8071 66.3873L85.7007 66.7692L85.5915 67.1538L85.4795 67.5329L85.3649 67.9121L85.2447 68.2913L85.1192 68.6677L84.9936 69.0415L84.8625 69.4152L84.7288 69.7863L84.5895 70.1573L84.4476 70.5257L84.3029 70.8913L84.1555 71.2569L84.0026 71.6226L83.847 71.9828L83.6859 72.343L83.5248 72.7005L83.3583 73.0553L83.189 73.4101L83.0143 73.7622L82.8396 74.1142L82.6594 74.4609L82.4765 74.8076L82.2881 75.1516L82.0998 75.4928L81.9059 75.8341L81.7094 76.1699L81.5101 76.5057L81.3081 76.8389L81.1033 77.1693L80.8931 77.4997L80.6802 77.8247L80.4645 78.1497L80.2488 78.4693L80.025 78.7889L79.8011 79.1058L79.5745 79.4199L79.3425 79.7314L79.1104 80.0401L78.8729 80.3462L78.6354 80.6495L78.3924 80.9529L78.1494 81.2508L77.901 81.546L77.6498 81.8385L77.396 82.131L77.1421 82.4181L76.8827 82.7024L76.6206 82.9841L76.3585 83.2631L76.091 83.5393L75.8207 83.8129L75.5505 84.0837L75.2775 84.3518L74.999 84.6173L74.7205 84.8773L74.4393 85.1373L74.1554 85.3919L73.8688 85.6437L73.5821 85.8956L73.29 86.1394L72.9979 86.3831L72.703 86.6242L72.4055 86.8598L72.1052 87.0954L71.8021 87.3256L71.4991 87.5531L71.1934 87.7779L70.8849 87.9973L70.5764 88.2167L70.2652 88.4306L69.9512 88.6419L69.6345 88.8477L69.3178 89.0536L68.9984 89.254L68.6763 89.4517L68.3541 89.6467L68.0293 89.8363L67.7044 90.0231L67.3768 90.2073L67.0465 90.3888L66.7161 90.5648L66.3831 90.7382L66.05 90.9088L65.7142 91.074L65.3757 91.2392L65.0372 91.3963L64.6986 91.5534L64.3574 91.705L64.0161 91.854L63.6722 92.0003L63.3282 92.1411L62.9815 92.2792L62.6348 92.4146L62.2853 92.5446L61.9359 92.6719L61.5864 92.7965L61.2343 92.9157L60.8821 93.0321L60.5299 93.1432L60.175 93.2542L59.4652 93.4601L59.1103 93.5576L58.7527 93.6524L58.395 93.7417L58.0347 93.8284L57.677 93.9124L57.3167 93.9909L56.9563 94.0667L56.596 94.1399L56.2356 94.2076L55.8725 94.2726L55.5121 94.3321L55.149 94.3917L54.4229 94.4946L54.0598 94.538L53.6967 94.5813L53.3336 94.6192L52.9705 94.6544L52.6074 94.6869L52.2416 94.714L51.8785 94.7384L51.5154 94.7574L51.1523 94.7736L50.7865 94.7844L50.4234 94.7953L50.0603 94.8007H49.6972L49.3341 94.798L48.9738 94.7926L48.6107 94.7817L48.2476 94.7709L47.8872 94.7519L47.5268 94.733L47.1638 94.7086L46.8034 94.6788L46.4458 94.649L46.0854 94.6138L45.3701 94.5326L45.0125 94.4865L44.6576 94.4351L44.3 94.3836L43.9451 94.3267L43.5929 94.2644L43.238 94.2021L42.8858 94.1344L42.5364 94.064L42.1842 93.9882L41.8348 93.9096L41.4881 93.8284L41.1386 93.7444L40.7946 93.6551L40.4479 93.563L40.1039 93.4682L39.7627 93.3707L39.4187 93.2678L39.0802 93.1621L38.7417 93.0538L38.4031 92.94L38.0673 92.8236L37.7316 92.7071L37.3985 92.5825L37.0682 92.458L36.7351 92.328L36.4075 92.198L36.0799 92.0625L35.755 91.9217L35.4301 91.7809L35.108 91.6346L34.7859 91.4884L34.4664 91.3367L34.1498 91.1823L33.8331 91.0225L33.5219 90.8627L33.2079 90.7002L32.8994 90.5323L32.5909 90.3617L32.2824 90.1884L31.9794 90.015L31.6764 89.8336L31.3761 89.6521L31.0785 89.4679L30.7809 89.2811L30.4888 89.0915L30.1967 88.8965L29.9046 88.7015L29.3313 88.3006L29.0501 88.0948L28.7689 87.889L28.4904 87.6777L28.212 87.4665L27.666 87.0331L27.3957 86.811L27.1309 86.5889L26.8661 86.3642L26.6013 86.1367L26.3419 85.9037L26.0853 85.6708L25.5775 85.1996L25.3291 84.9585L25.0807 84.7148L24.8377 84.471L24.5947 84.2218L24.3572 83.9727L24.1197 83.7208L23.8849 83.4662L23.6529 83.2116L23.4263 82.9516L23.1997 82.6916L22.9758 82.4289L22.7574 82.1662L22.539 81.8981L22.3261 81.6299L22.1131 81.3591L21.6982 80.812L21.4961 80.5358L21.2941 80.2568L21.0976 79.9778L20.9037 79.6962L20.7126 79.4118L20.5243 79.1247L20.3386 78.8376L20.1557 78.5505L19.9755 78.2607L19.8008 77.9682L19.6261 77.673L19.4568 77.3778L19.2903 77.0826L19.1238 76.7847L18.9627 76.4841L18.8071 76.1834L18.6515 75.8801L18.4986 75.5768L18.3512 75.2734L18.2065 74.9674L18.0645 74.6586L17.9253 74.3499L17.7888 74.0411L17.655 73.7297L17.5267 73.4182L17.4011 73.104L17.2755 72.7899L17.1581 72.473L17.0408 72.1588L16.9261 71.8419L16.8169 71.5223L16.7104 71.2028L16.6067 70.8832L16.5057 70.5636L16.4101 70.2413L16.3146 69.919L16.2245 69.5967L16.1371 69.2744L16.0525 68.9494L15.9733 68.6244L15.8942 68.2994L15.8204 67.9744L15.7495 67.6467L15.6839 67.319L15.6184 66.994L15.5584 66.6663L15.501 66.3385L15.4464 66.0081L15.3946 65.6804L15.3481 65.35L15.3045 65.0223L15.2635 64.6919L15.2253 64.3642L15.1898 64.0337L15.1598 63.7033L15.1325 63.3756L15.1079 63.0452L15.0861 62.7148L15.0697 62.3843L15.0533 62.0539L15.0424 61.7262L15.0342 61.3958L15.0315 61.0654L15.0287 60.7377L15.0315 60.41L15.0369 60.0795L15.0451 59.7518L15.056 59.4241L15.0724 59.0964L15.0888 58.7714L15.1106 58.4437L15.1352 58.116L15.1953 57.466L15.2308 57.141L15.2662 56.8187L15.3072 56.4937L15.3509 56.1714L15.4 55.8491L15.4492 55.5295L15.5038 55.2072L15.5584 54.8903L15.6184 54.5707L15.6812 54.2511L15.7495 53.9343L15.8177 53.6201L15.8887 53.3032L15.9651 52.989L16.0443 52.6776L16.1262 52.3634L16.2081 52.052L16.2982 51.7432L16.3883 51.4344L16.4811 51.1284L16.5767 50.8196L16.6777 50.5163L16.7787 50.2103L16.8851 49.9096L16.9943 49.6063L17.1035 49.3084L17.2182 49.0078L17.3356 48.7125L17.4557 48.4146L17.5786 48.1221L17.7042 47.8269L17.8325 47.5371L17.9635 47.2473L18.0973 46.9602L18.2338 46.6732L18.3757 46.3888L18.5177 46.1044L18.6624 45.8227L18.8098 45.5411L18.96 45.2648L19.1128 44.9886L19.2685 44.7123L19.4268 44.4388L19.5879 44.1679L19.7517 43.8998L19.9182 43.6317L20.0847 43.3662L20.2567 43.1035L20.4314 42.8408L20.6062 42.5808L20.7836 42.3235L21.1494 41.8144L21.3351 41.5625L21.5234 41.3133L21.7118 41.0668L21.9056 40.8204L22.0995 40.5793L22.2988 40.3383L22.4981 40.1L22.7001 39.8643L22.9021 39.6287L23.1096 39.3985L23.3171 39.1683L23.5273 38.9408L23.7402 38.716L23.9532 38.4939L24.1716 38.2718L24.39 38.0552L24.6111 37.8385L24.8322 37.6272L25.0561 37.416L25.2827 37.2074L25.512 37.0016L25.7413 36.7985L25.9734 36.5981L26.2082 36.4003L26.4429 36.2053L26.6804 36.0131L26.9207 35.8208L27.1609 35.6339L27.4012 35.4497L27.6469 35.2655L27.8926 35.0868L28.1383 34.908L28.3894 34.7347L28.6379 34.5614L28.8918 34.3935L29.1429 34.2255L29.3995 34.063L29.6562 33.9005L29.9128 33.7434L30.1721 33.5864L30.4315 33.4347L30.6936 33.283L30.9556 33.1368L31.2205 32.9932L31.4853 32.8497L31.7528 32.7116L32.0204 32.5761L32.2906 32.4434L32.5582 32.3134L32.8312 32.1861L33.1014 32.0616L33.3772 31.9397L33.6502 31.8205L33.9259 31.7041L34.2016 31.5903L34.4774 31.482L34.7558 31.3736L35.0343 31.2707L35.3128 31.1678L35.5939 31.0703L35.8751 30.9755L36.1563 30.8834L36.4375 30.794L36.7214 30.7074L37.0054 30.6234L37.2893 30.5422L37.5759 30.4636L37.8599 30.3905L38.1465 30.3174L38.4332 30.2497L38.7198 30.1847L39.0065 30.1197L39.2931 30.0601L39.5798 30.0032L39.8691 29.949L40.1585 29.8976L40.4479 29.8515L40.7346 29.8055L41.0239 29.7649L41.3133 29.7242L41.6027 29.689L41.8921 29.6565L42.1842 29.6267L42.4736 29.5997L42.763 29.5753L43.0523 29.5536L43.6311 29.5211L43.9205 29.5103L44.2099 29.4994L44.4993 29.494L44.7886 29.4913H45.3647L45.6541 29.4994L45.9407 29.5076L46.2301 29.5184L46.5167 29.5319L47.09 29.5699L47.3767 29.5942L47.6606 29.6186L47.9473 29.6484L48.2312 29.6809L48.5151 29.7134L48.799 29.7513L49.0802 29.792L49.3641 29.8353L49.6453 29.8813L49.9265 29.9301L50.205 29.9815L50.4835 30.0357L50.7619 30.0926L51.0404 30.1549L51.3161 30.2172L51.5918 30.2822L51.8676 30.3499L52.4136 30.4961L52.6866 30.572L53.2271 30.7345L53.4947 30.8184L53.7649 30.9051L54.0297 30.9972L54.2973 31.0893L54.5594 31.184L54.8242 31.2815L55.0863 31.3818L55.3456 31.4847L55.605 31.5903L55.8643 31.6986L56.1209 31.8097L56.3776 31.9234L56.6314 32.0399L56.8826 32.1563L57.1338 32.2782L57.3849 32.4028L57.6334 32.5274L57.8791 32.6547L58.1248 32.7847L58.3705 32.9174L58.6107 33.0528L58.8537 33.1909L59.3287 33.4726L59.5662 33.6189L59.801 33.7651L60.033 33.9141L60.4917 34.2174L60.721 34.3745L60.9449 34.5316L61.1687 34.6914L61.3926 34.8539L61.611 35.0191L61.8294 35.1843L62.0478 35.3522L62.2607 35.5228L62.4737 35.6962L62.8941 36.0483L63.1016 36.227L63.3063 36.4058L63.5084 36.5899L63.7104 36.7741L63.9069 36.961L64.1062 37.1479L64.3001 37.3374L64.6823 37.722L64.8706 37.917L65.059 38.1147L65.2419 38.3125L65.4248 38.5129L65.605 38.716L65.7825 38.9191L65.9572 39.125L66.1292 39.3308L66.3012 39.5393L66.4704 39.7506L66.637 39.9618L66.8008 40.1758L66.9618 40.3898L67.1229 40.6064L67.2785 40.8231L67.4341 41.0425L67.587 41.2619L67.7372 41.4839L67.8846 41.706L68.032 41.9308L68.174 42.1556L68.3159 42.3831L68.4524 42.6106L68.5889 42.8408L68.7227 43.071L68.8537 43.3012L68.982 43.5342L69.1076 43.7671L69.2332 44.0027L69.3533 44.2383L69.4734 44.4767L69.5881 44.7123L69.7028 44.9506L69.8147 45.1917L69.9239 45.4327L70.1314 45.9148L70.2324 46.1586L70.3334 46.4023L70.4289 46.6488L70.5218 46.8925L70.6146 47.139L70.702 47.3855L70.7866 47.6346L70.8712 47.8811L70.9531 48.1302L71.106 48.6286L71.1797 48.8805L71.2507 49.1323L71.3189 49.3815L71.3845 49.6334L71.4445 49.888L71.5046 50.1399L71.5646 50.3917L71.6192 50.6463L71.6711 50.9009L71.7202 51.1528L71.8131 51.6619L71.854 51.9165L71.895 52.1711L71.9305 52.4284L71.9659 52.683L71.996 52.9376L72.026 53.1922L72.0533 53.4495L72.0751 53.704L72.097 53.9586L72.1161 54.2132L72.1325 54.4705L72.1461 54.7251L72.1571 54.9797L72.1652 55.2343L72.1707 55.4916L72.1762 55.7462V55.998L72.1707 56.5072L72.1625 56.7618L72.1543 57.0137L72.1407 57.2683L72.127 57.5201L72.1106 57.772L72.0915 58.0239L72.067 58.2758L72.0424 58.5249L72.0178 58.7768L71.9878 59.026L71.955 59.2751L71.9223 59.5243L71.884 59.7708L71.8431 60.0199L71.8021 60.2664L71.7585 60.5129L71.7121 60.7566L71.6629 61.0004L71.611 61.2468L71.5564 61.4879L71.5018 61.7316L71.4418 61.9727L71.3817 62.2137L71.3189 62.452L71.2534 62.6931L71.1852 62.9314L71.1142 63.1671L71.0405 63.4027L70.9668 63.6383L70.8903 63.8739L70.8111 64.1069L70.7292 64.3371L70.6446 64.57L70.5573 64.7975L70.4699 65.0277L70.3798 65.2552L70.287 65.4827L70.1914 65.7075L70.0932 65.9323L69.9949 66.1544L69.8939 66.3765L69.7901 66.5958L69.6837 66.8152L69.5745 67.0319L69.4652 67.2486L69.3533 67.4652L69.2387 67.6792L69.124 67.8904L69.0066 68.1017L68.8865 68.3102L68.7636 68.5188L68.6381 68.7246L68.5125 68.9304L68.3869 69.1336L68.2559 69.3367L68.1248 69.5371L67.991 69.7348L67.8545 69.9325L67.718 70.1275L67.5788 70.3225L67.4369 70.5148L67.2949 70.7071L67.1502 70.8967L67.0055 71.0836L66.8554 71.2705L66.7079 71.4546L66.4022 71.8176L66.2466 71.9963L66.091 72.1724L65.9326 72.3484L65.7743 72.5217L65.6132 72.6924L65.4494 72.863L65.2856 73.0309L65.1191 73.1988L64.9525 73.3613L64.7833 73.5238L64.614 73.6836L64.442 73.8434L64.27 74.0005L64.0953 74.1549L63.9179 74.3065L63.7404 74.4582L63.563 74.6072L63.3828 74.7534L63.2026 74.8997L63.0197 75.0432L62.8368 75.1813L62.6511 75.3222L62.4655 75.4576L62.2771 75.593L62.0887 75.7257L61.9004 75.8557L61.7093 75.983L61.5182 76.1103L61.3243 76.2349L61.1305 76.3568L60.9367 76.4759L60.7401 76.5951L60.5436 76.7116L60.347 76.8253L60.1477 76.9364L59.9484 77.0447L59.7464 77.153L59.3424 77.3589L59.1403 77.4591L58.9356 77.5593L58.7308 77.6541L58.5261 77.7489L58.3213 77.841L58.1138 77.9303L57.9064 78.017L57.6989 78.101L57.4887 78.1849L57.2785 78.2662L57.071 78.3447L56.8608 78.4205L56.6478 78.4937L56.4376 78.5641L56.2247 78.6345L56.0117 78.7022L55.7988 78.7672L55.5859 78.8295L55.3729 78.8891L55.1572 78.946L54.9443 79.0028L54.7286 79.057L54.513 79.1085L54.2973 79.1572L54.0816 79.2033L53.8659 79.2466L53.6503 79.2899L53.4346 79.3305L53.2189 79.3658L53.0005 79.4037L52.7849 79.4362L52.5692 79.466L52.3508 79.4958L52.1351 79.5201L51.9167 79.5445L51.701 79.5662L51.4826 79.5851L51.267 79.6041L51.0513 79.6176L50.8329 79.6312L50.6172 79.6393L50.4016 79.6501L50.1832 79.6555L49.9675 79.6583L49.7518 79.661L49.5361 79.6583L49.3205 79.6555L49.1075 79.6501L48.8919 79.642L48.6762 79.6339L48.4632 79.623L48.2476 79.6068L48.0346 79.5905L47.8217 79.5743L47.6087 79.5526L47.3985 79.531L47.1856 79.5039L46.9754 79.4768L46.7652 79.447L46.555 79.4172L46.3447 79.3847L46.1373 79.3468L45.9271 79.3116L45.7196 79.271L45.5121 79.2276L45.3073 79.1843L45.0999 79.1383L44.6904 79.0407L44.4883 78.9866L44.2863 78.9324L44.0843 78.8755L43.8823 78.8187L43.683 78.7591L43.4837 78.6941L43.2844 78.6318L43.0851 78.5641L42.8885 78.4964L42.6947 78.426L42.4982 78.3528L42.3043 78.2797L42.1105 78.2039L41.9194 78.1253L41.7283 78.0468L41.5399 77.9628L41.3488 77.8816L41.1632 77.7949L40.9748 77.7082L40.7892 77.6189L40.6063 77.5268L40.4206 77.4347L40.2404 77.3399L40.0575 77.2451L39.8773 77.1449L39.6999 77.0447L39.5224 76.9445L39.3477 76.8416L39.1703 76.7359L38.9983 76.6303L38.8263 76.522L38.6543 76.4109L38.485 76.2999L38.3158 76.1861L38.1492 76.0724L37.9854 75.9559L37.8189 75.8368L37.6578 75.7176L37.4968 75.5957L37.3357 75.4738L37.1774 75.3493L37.019 75.2247L36.8634 75.0974L36.7105 74.9674L36.5576 74.8401L36.2573 74.5747L36.1072 74.4392L35.9625 74.3038L35.8178 74.1684L35.6731 74.0303L35.5312 73.8895L35.3919 73.7486L35.2527 73.6078L35.1162 73.4642L34.9797 73.318L34.8459 73.1744L34.7149 73.0255L34.5838 72.8792L34.4555 72.7276L34.3272 72.5786L34.2016 72.4269L34.0788 72.2726L33.9559 72.1182L33.8358 71.9638L33.7184 71.8094L33.601 71.6523L33.4864 71.4926L33.3717 71.3355L33.2598 71.173L33.1506 71.0132L33.0441 70.8507L32.9376 70.6882L32.8312 70.5257L32.7302 70.3605L32.6291 70.1953L32.5309 70.0273L32.4326 69.8621L32.337 69.6942L32.2442 69.5236L32.1514 69.3557L32.0613 69.185L31.9739 69.0144L31.8866 68.8411L31.8047 68.6704L31.7201 68.4971L31.6409 68.3238L31.5617 68.1477L31.4853 67.9744L31.4088 67.7984L31.3379 67.6223L31.2641 67.4463L31.1959 67.2675L31.1276 67.0915L31.0621 66.9127L30.9993 66.7367L30.9365 66.5579L30.8792 66.3765L30.8191 66.1977L30.7645 66.0163L30.7099 65.8375L30.6581 65.656L30.6062 65.4746L30.5134 65.1117L30.467 64.9302L30.426 64.7487L30.3851 64.5673L30.3469 64.3831L30.3086 64.2017L30.2731 64.0175L30.2404 63.836L30.2104 63.6519L30.1803 63.4704L30.153 63.2862L30.1285 63.1021L30.1039 62.9206L30.082 62.7364L30.0629 62.555L30.0438 62.3708L30.0302 62.1866L30.0138 62.0052L30.0029 61.821L29.992 61.6395L29.9838 61.4554L29.9783 61.2739L29.9728 61.0897L29.9701 60.9083V60.5454L29.9728 60.391H40.2868V60.8785L40.2896 60.9543L40.2923 61.0302L40.295 61.106L40.3005 61.1818L40.306 61.2577L40.3114 61.3335L40.3169 61.4093L40.3251 61.4852L40.3333 61.561L40.3414 61.6368L40.3524 61.7154L40.3633 61.7912L40.3742 61.8698L40.3851 61.9456L40.3988 62.0241L40.4124 62.1L40.4288 62.1785L40.4425 62.2543L40.4588 62.3329L40.4779 62.4114L40.4943 62.4873L40.5162 62.5658L40.5353 62.6443L40.5544 62.7229L40.5762 62.7987L40.6008 62.8773L40.6226 62.9558L40.6472 63.0316L40.6718 63.1102L40.6991 63.1887L40.7236 63.2646L40.7537 63.3431L40.781 63.4216L40.811 63.5002L40.841 63.576L40.8711 63.6546L40.9038 63.7304L40.9366 63.8089L40.9721 63.8848L41.0048 63.9606L41.0403 64.0391L41.0785 64.115L41.114 64.1908L41.1523 64.2666L41.1932 64.3425L41.2314 64.4183L41.2724 64.4942L41.3161 64.57L41.357 64.6458L41.4007 64.7189L41.4444 64.7948L41.4908 64.8679L41.5372 64.9437L41.5836 65.0169L41.6819 65.1631L41.731 65.2362L41.7802 65.3094L41.832 65.3825L41.8839 65.4529L41.9385 65.5233L41.9931 65.5965L42.0477 65.6669L42.1023 65.7373L42.1596 65.8077L42.217 65.8754L42.277 65.9458L42.3344 66.0135L42.3944 66.084L42.4572 66.1517L42.5173 66.2167L42.5801 66.2844L42.6428 66.3521L42.7084 66.4171L42.7739 66.4821L42.8394 66.5471L42.9077 66.6121L42.9732 66.6771L43.0414 66.7394L43.1124 66.8017L43.1807 66.864L43.2516 66.9263L43.3254 66.9858L43.3963 67.0481L43.47 67.1077L43.5438 67.1673L43.6202 67.2242L43.6939 67.2838L43.7703 67.3406L43.8495 67.3975L43.926 67.4544L44.0051 67.5086L44.0843 67.5627L44.1662 67.6169L44.2454 67.6711L44.4092 67.774L44.4938 67.8254L44.5757 67.8769L44.6603 67.9256L44.7477 67.9744L44.8323 68.0231L45.0944 68.1613L45.1845 68.2073L45.2746 68.2506L45.3647 68.294L45.4548 68.3373L45.5449 68.3779L45.6377 68.4186L45.7305 68.4592L45.8233 68.4971L45.9161 68.535L46.0117 68.5729L46.1072 68.6082L46.2983 68.6786L46.3939 68.7138L46.4922 68.7463L46.5905 68.7761L46.6887 68.8086L46.787 68.8384L46.888 68.8682L46.9863 68.8952L47.0873 68.9223L47.1883 68.9467L47.2893 68.9738L47.3931 68.9954L47.4941 69.0198L47.5978 69.0415L47.7016 69.0632L48.0128 69.12L48.1193 69.1363L48.223 69.1525L48.3295 69.1661L48.5424 69.1932L48.6489 69.204L48.7581 69.2148L48.8646 69.2229L48.9738 69.2311L49.0802 69.2392L49.1894 69.2446L49.2986 69.25L49.4078 69.2527L49.517 69.2555L49.6262 69.2582H49.8474L49.9566 69.2555L50.0685 69.2527L50.1804 69.2473L50.2896 69.2446L50.4016 69.2365L50.5135 69.2284L50.6254 69.2202L50.7346 69.2094L50.8465 69.1986L50.9612 69.1877L51.0731 69.1742L51.1851 69.158L51.297 69.1417L51.4089 69.1255L51.5209 69.1065L51.6328 69.0875L51.7475 69.0659L51.8594 69.0442L51.9713 69.0225L52.0832 68.9982L52.1952 68.9711L52.3071 68.944L52.4218 68.9169L52.5337 68.8871L52.6456 68.8573L52.7576 68.8248L52.8695 68.7923L52.9814 68.7598L53.0933 68.7246L53.2053 68.6867L53.3172 68.6488L53.4291 68.6109L53.5383 68.5702L53.6503 68.5296L53.7622 68.4863L53.8714 68.4429L53.9833 68.3969L54.0925 68.3509L54.2045 68.3021L54.3137 68.2534L54.4229 68.2046L54.5321 68.1531L54.6413 68.1017L54.7477 68.0475L54.8569 67.9906L54.9634 67.9365L55.0726 67.8769L55.1791 67.82L55.2855 67.7604L55.392 67.6981L55.4985 67.6358L55.605 67.5736L55.8124 67.4436L55.9189 67.3758L56.0227 67.3081L56.1237 67.2377L56.2274 67.1673L56.3284 67.0942L56.4322 67.0211L56.5332 66.9479L56.6314 66.8721L56.7325 66.7963L56.8335 66.7177L56.9317 66.6392L57.03 66.5579L57.1256 66.4767L57.2239 66.3927L57.3194 66.3115L57.415 66.2248L57.5105 66.1408L57.6033 66.0515L57.6989 65.9648L57.7917 65.8754L57.9746 65.694L58.0647 65.6019L58.1548 65.5071L58.2449 65.4123L58.3322 65.3148L58.4196 65.22L58.507 65.1198L58.5916 65.0223L58.6762 64.9221L58.8455 64.7162L58.9274 64.6133L59.0066 64.5104L59.0885 64.4048L59.1676 64.2964L59.2468 64.1908L59.326 64.0825L59.4024 63.9714L59.4761 63.8604L59.5526 63.7494L59.6263 63.6383L59.6973 63.5246L59.771 63.4081L59.8419 63.2943L59.9784 63.0614L60.1149 62.8231L60.1805 62.7039L60.2433 62.5848L60.3088 62.4602L60.3688 62.3383L60.4316 62.2164L60.4917 62.0918L60.549 61.9673L60.6063 61.84L60.6637 61.7154L60.7183 61.5881L60.7729 61.4581L60.8248 61.3308L60.8766 61.2008L60.9285 61.0708L60.9776 60.9381L61.024 60.8054L61.0705 60.6727L61.1169 60.54L61.1605 60.4045L61.2042 60.2718L61.2452 60.1364L61.2861 59.9983L61.3271 59.8629L61.3626 59.7247L61.4008 59.5866L61.4335 59.4485L61.469 59.3104L61.5018 59.1695L61.5318 59.0287L61.5619 58.8878L61.5892 58.747L61.6165 58.6062L61.6438 58.4626L61.6683 58.3191L61.6902 58.1756L61.712 58.032L61.7311 57.8885L61.7502 57.7449L61.7666 57.5987L61.783 57.4524L61.7966 57.3062L61.8103 57.1599L61.8212 57.0137L61.8321 56.8674L61.8403 56.7185L61.8458 56.5722L61.8567 56.2743L61.8594 56.1253V55.8274L61.8567 55.6784L61.854 55.5295L61.8485 55.3805L61.843 55.2289L61.8349 55.0799L61.8239 54.9282L61.813 54.7793L61.8021 54.6276L61.7884 54.4786L61.7721 54.327L61.753 54.1753L61.7366 54.0263L61.6929 53.723L61.6711 53.5741L61.6465 53.4224L61.6192 53.2707L61.5919 53.119L61.5619 52.9701L61.4963 52.6668L61.4636 52.5178L61.4281 52.3661L61.3899 52.2172L61.3516 52.0655L61.3107 51.9165L61.267 51.7676L61.2261 51.6159L61.1797 51.4669L61.1332 51.318L61.0841 51.169L61.035 51.0228L60.9831 50.8738L60.9312 50.7249L60.8766 50.5786L60.8193 50.4296L60.762 50.2834L60.7019 50.1371L60.6418 49.9909L60.579 49.8446L60.5163 49.7011L60.448 49.5548L60.3825 49.4113L60.3142 49.2678L60.2433 49.1242L60.1723 48.9807L60.0986 48.8371L60.0249 48.6963L59.9484 48.5555L59.7901 48.2738L59.7109 48.1357L59.6263 47.9975L59.5444 47.8567L59.457 47.7213L59.3697 47.5832L59.2823 47.4477L59.1922 47.3123L59.1021 47.1769L59.0093 47.0442L58.9137 46.9088L58.8182 46.7788L58.7199 46.6461L58.5233 46.3861L58.4223 46.2561L58.3186 46.1288L58.2121 46.0015L58.1084 45.8742L57.9992 45.7496L57.89 45.625L57.7808 45.5004L57.6689 45.3786L57.5569 45.2567L57.4423 45.1348L57.3276 45.0156L57.0928 44.7773L56.9727 44.6608L56.8498 44.5471L56.7297 44.4306L56.6041 44.3196L56.4786 44.2058L56.353 44.0948L56.2247 43.9837L56.0964 43.8754L55.9681 43.7671L55.837 43.6615L55.7032 43.5558L55.5695 43.4529L55.433 43.35L55.2992 43.2471L55.0207 43.0467L54.8815 42.9492L54.7423 42.8544L54.5976 42.7569L54.4556 42.6648L54.3109 42.5727L54.1662 42.4806L53.8714 42.3019L53.7213 42.2152L53.5711 42.1285L53.4209 42.0446L52.9623 41.8008L52.8067 41.7223L52.6511 41.6464L52.4927 41.5706L52.3344 41.4975L52.1761 41.4244L52.0177 41.3539L51.8567 41.2835L51.6956 41.2158L51.5318 41.1508L51.368 41.0858L51.2042 41.0235L51.0376 40.9612L50.8738 40.9016L50.7073 40.8421L50.5381 40.7852L50.3688 40.731L50.2023 40.6768L50.0303 40.6254L49.861 40.5766L49.689 40.5279L49.517 40.4818L49.345 40.4358L49.1703 40.3925L48.9956 40.3518L48.8209 40.3112L48.6462 40.2733L48.4714 40.2381L48.294 40.2029L48.1165 40.1704L47.9391 40.1406L47.7616 40.1108L47.5814 40.0837L47.404 40.0593L47.2238 40.035L47.0436 40.0106L46.8635 39.9916L46.6833 39.9727L46.5004 39.9564L46.3174 39.9429L46.1373 39.9293L45.9544 39.9185L45.7714 39.9104L45.5885 39.9023L45.4029 39.8968L45.22 39.8941L45.0371 39.8914H44.8514L44.6658 39.8941L44.4829 39.8968L44.2972 39.9023L44.1116 39.9104L43.926 39.9212L43.7403 39.932L43.5574 39.9456L43.369 39.9618L43.1861 39.9781L42.9977 39.997L42.8121 40.0187L42.6265 40.0431L42.4408 40.0675L42.2552 40.0945L42.0695 40.1216L41.6983 40.1866L41.327 40.257L41.1413 40.295L40.9584 40.3383L40.7728 40.3789L40.5871 40.4223L40.4042 40.471L40.2186 40.5198L40.0357 40.5685L39.85 40.62L39.6671 40.6741L39.3013 40.7879L39.1184 40.8475L38.9382 40.9098L38.7553 40.9748L38.5751 41.0398L38.3949 41.1075L38.212 41.1779L38.0346 41.2483L37.8544 41.3214L37.6742 41.3973L37.4968 41.4758L37.3193 41.5544L37.1419 41.6356L36.9671 41.7169L36.7897 41.8035L36.615 41.8902L36.2655 42.0689L36.0935 42.161L35.9188 42.2558L35.7468 42.3506L35.5776 42.4508L35.4056 42.551L35.239 42.6512L35.0698 42.7542L34.9005 42.8598L34.734 42.9681L34.5675 43.0765L34.4037 43.1875L34.2399 43.3012L34.0761 43.415L33.9123 43.5315L33.7512 43.6506L33.5901 43.7698L33.4318 43.8917L33.2734 44.0163L33.1151 44.1408L32.9595 44.2681L32.8039 44.3954L32.651 44.5281L32.3452 44.7935L32.1951 44.929L32.0449 45.0671L31.8975 45.2052L31.7501 45.3461L31.6054 45.4896L31.4607 45.6331L31.316 45.7794L31.1741 45.9256L31.0348 46.0746L30.7564 46.3779L30.6199 46.5323L30.4861 46.6867L30.3523 46.8438L30.2185 47.0009L30.0875 47.1634L29.9592 47.3232L29.8309 47.4857L29.7026 47.6509L29.5797 47.8161L29.4541 47.984L29.334 48.1519L29.2112 48.3225L29.0938 48.4959L28.9764 48.6665L28.8617 48.8425L28.7471 49.0186L28.6351 49.1946L28.5232 49.3734L28.414 49.5548L28.3048 49.7363L28.2011 49.9178L27.9936 50.2861L27.8926 50.473L27.7943 50.6599L27.696 50.8494L27.6005 51.039L27.5076 51.2313L27.4175 51.4209L27.3275 51.6159L27.2374 51.8109L27.1527 52.0059L27.0681 52.2036L26.9862 52.4013L26.9043 52.599L26.8251 52.7995L26.7487 52.9999L26.675 53.203L26.6013 53.4061L26.5303 53.6093L26.3938 54.0209L26.3283 54.2268L26.2655 54.4353L26.2054 54.6439L26.1454 54.8524L26.088 55.0609L26.0334 55.2722L25.9788 55.4834L25.9297 55.6974L25.8806 55.9114L25.8341 56.1253L25.7877 56.3393L25.7468 56.556L25.7058 56.7699L25.6676 56.9866L25.6321 57.2033L25.5966 57.4226L25.5639 57.642L25.5338 57.8587L25.5065 58.0781L25.482 58.3001L25.4574 58.5195L25.4383 58.7416L25.4192 58.961L25.4001 59.1858L25.3864 59.4051L25.3728 59.6299L25.3646 59.852L25.3564 60.0768L25.3509 60.2989L25.3455 60.5237V60.9706L25.3482 61.1981L25.3537 61.4202L25.3618 61.645L25.3728 61.8725L25.3837 62.0973L25.4001 62.3221L25.4164 62.5468L25.4356 62.7743L25.4547 62.9991L25.4792 63.2239L25.5038 63.4514L25.5338 63.6762L25.5639 63.901L25.5966 64.1258L25.6321 64.3533L25.6676 64.5781L25.7086 64.8029L25.7495 65.0277L25.7932 65.2525L25.8396 65.4773L25.8887 65.6994L25.9379 65.9242L25.9925 66.149L26.0471 66.371L26.1044 66.5958L26.1645 66.8179L26.2273 67.04L26.2928 67.2621L26.3583 67.4842L26.4293 67.7036L26.5003 67.9256L26.574 68.145L26.6504 68.3644L26.7269 68.5811L26.8088 68.8004L26.8907 69.0171L26.9753 69.2365L27.0626 69.4504L27.1527 69.6671L27.2456 69.8811L27.3384 70.095L27.4339 70.309L27.5322 70.523L27.6332 70.7342L27.737 70.9455L27.8407 71.1567L27.9472 71.3653L28.0591 71.5738L28.1683 71.7823L28.283 71.9882L28.4004 72.194L28.5177 72.3971L28.6379 72.6003L28.8836 73.0065L29.0119 73.2069L29.1402 73.4074L29.2712 73.6051L29.405 73.8028L29.5388 73.9978L29.6753 74.1928L29.8145 74.3851L29.9565 74.5774L30.1012 74.7697L30.2458 74.9593L30.3933 75.1488L30.5434 75.3357L30.6936 75.5199L30.8464 75.704L31.0021 75.8882L31.1604 76.0697L31.3187 76.2511L31.4825 76.4299L31.6436 76.6059L31.8101 76.782L31.9767 76.958L32.1459 77.1286L32.3152 77.302L32.4899 77.4699L32.6619 77.6378L32.8394 77.8057L33.0168 77.9682L33.1997 78.1334L33.3799 78.2932L33.5628 78.453L33.7485 78.6101L33.9368 78.7672L34.1252 78.9216L34.3163 79.076L34.5074 79.2249L34.7012 79.3739L34.8978 79.5228L35.0944 79.6664L35.2936 79.8099L35.4929 79.9535L35.695 80.0916L35.8997 80.2297L36.1045 80.3651L36.3119 80.5006L36.5194 80.6306L36.7296 80.7606L36.9398 80.8906L37.1528 81.0151L37.3685 81.1397L37.5841 81.2616L37.7998 81.3808L38.0209 81.4972L38.2393 81.6137L38.4605 81.7274L38.6816 81.8385L38.9055 81.9468L39.132 82.0524L39.3586 82.1581L39.5852 82.261L39.8145 82.3612L40.0439 82.4587L40.2759 82.5535L40.508 82.6483L40.74 82.7377L40.9748 82.827L41.2123 82.9137L41.4471 82.9977L41.6846 83.0789L41.9249 83.1602L42.1651 83.236L42.4053 83.3118L42.6483 83.3822L42.8913 83.4527L43.1343 83.5204L43.3772 83.5854L43.6229 83.6477L43.8686 83.71L44.1171 83.7668L44.3655 83.821L44.6139 83.8752L44.8624 83.9266L45.1135 83.9727L45.3647 84.0187L45.6131 84.062L45.867 84.1027L46.1209 84.1406L46.372 84.1758L46.6287 84.2083L46.8826 84.2381L47.1365 84.2652L47.3931 84.2896L47.6497 84.3139L47.9036 84.3329L48.1602 84.3518L48.4196 84.3654L48.6762 84.3762L48.9355 84.387L49.1922 84.3925L49.4515 84.3979L49.7109 84.4006L49.9702 84.3979L50.2268 84.3952L50.4889 84.3898L50.7483 84.3789L51.0076 84.3681L51.267 84.3545L51.5263 84.3383L51.7857 84.3166L52.0477 84.295L52.3071 84.2706L52.5665 84.2435L52.8285 84.211L53.0879 84.1785L53.3472 84.1433L53.6066 84.1054L53.8659 84.0648L54.1253 84.0214L54.3846 83.9754L54.644 83.9266L54.9033 83.8752L55.16 83.821L55.4193 83.7641L55.6759 83.7018L55.9326 83.6423L56.1919 83.5772L56.4485 83.5095L56.7024 83.4391L56.959 83.366L57.2157 83.2902L57.4668 83.2116L57.7235 83.1304L57.9746 83.0464L58.2285 82.9597L58.4797 82.8704L58.7336 82.7783L58.982 82.6862L59.2332 82.5887L59.4816 82.4885L59.7327 82.3856L59.9784 82.2827L60.2269 82.1743L60.4698 82.066L60.7155 81.9522L60.9613 81.8385L61.4472 81.6002L61.6874 81.4756L61.9277 81.351L62.1679 81.2237L62.4054 81.0937L62.6429 80.961L62.8777 80.8256L63.1125 80.6874L63.3473 80.5466L63.5793 80.4031L63.8114 80.2568L64.0407 80.1078L64.27 79.9589L64.4966 79.8072L64.7232 79.6501L64.9471 79.493L65.1709 79.3333L65.3921 79.1708L65.6132 79.0055L65.8316 78.8376L66.05 78.667L66.2657 78.4964L66.4786 78.3203L66.6916 78.1443L66.9045 77.9655L67.1147 77.7841L67.3222 77.5999L67.5269 77.4157L67.7344 77.2262L67.9364 77.0366L68.1385 76.8443L68.3378 76.6493L68.5343 76.4516L68.7309 76.2511L68.9247 76.0507L69.1158 75.8476L69.3069 75.6418L69.4953 75.4332L69.6837 75.2247L69.8666 75.0107L70.0495 74.7995L70.2324 74.5828L70.4098 74.3634L70.5873 74.144L70.762 73.922L70.934 73.6972L71.1033 73.4724L71.2725 73.2449L71.439 73.0146L71.6029 72.7844L71.7667 72.5488L71.925 72.3159L72.0833 72.0776L72.2389 71.8392L72.3918 71.5982L72.542 71.3544L72.6894 71.1107L72.8368 70.8669L72.9815 70.6178L73.1235 70.3686L73.2627 70.1194L73.3992 69.8648L73.533 69.613L73.664 69.3557L73.7951 69.0984L73.9206 68.8411L74.0462 68.5811L74.1691 68.3184L74.2865 68.0556L74.4039 67.7902L74.5185 67.5248L74.6304 67.2567L74.7396 66.9885L74.8461 66.7204L74.9526 66.4469L75.0536 66.176L75.1519 65.9025L75.2474 65.6263L75.343 65.35L75.4331 65.0737L75.5204 64.7948L75.6078 64.5158L75.6897 64.2342L75.7716 63.9525L75.848 63.6708L75.9217 63.3864L75.9954 63.1021L76.0637 62.815L76.1947 62.2408L76.2548 61.9537L76.3121 61.6639L76.3667 61.3741L76.4186 61.0816L76.4677 60.7891L76.5169 60.4993L76.5578 60.2041L76.5988 59.9116L76.637 59.6164L76.6725 59.3212L76.7053 59.026L76.7326 58.7308L76.7599 58.4328L76.7844 58.1376L76.8035 57.8397L76.8199 57.5418L76.8363 57.2439L76.8472 56.9432L76.8554 56.6453L76.8609 56.3447L76.8636 56.0441V55.7462L76.8609 55.4455L76.8527 55.1449L76.8445 54.8443L76.8172 54.243L76.7981 53.9424L76.7762 53.6418L76.7517 53.3411L76.7244 53.0378L76.6943 52.7372L76.6616 52.4365L76.5851 51.8353L76.5415 51.5347L76.4978 51.2367L76.4486 50.9361L76.3968 50.6355L76.3422 50.3376L76.2848 50.0369L76.2248 49.739L76.162 49.4411L76.0255 48.8453L75.9518 48.55L75.8753 48.2521L75.7962 47.9569L75.717 47.6617L75.6324 47.3665L75.545 47.074L75.4522 46.7788L75.3594 46.4863L75.2638 46.1965L75.1628 45.904L75.0618 45.6142L74.9553 45.3244L74.8461 45.0346L74.7369 44.7475L74.6223 44.4631L74.5049 44.176L74.3847 43.8917L74.2592 43.6073L74.1336 43.3256L74.0053 43.0439L73.8742 42.7623L73.7377 42.4833L73.6012 42.2044L73.462 41.9281L73.3173 41.6519L73.1726 41.3783L73.0225 41.1048L72.8696 40.8312L72.7167 40.5604L72.5584 40.2923L72.3973 40.0241L72.2362 39.7587L72.0697 39.4933L71.9004 39.2306L71.7312 38.9679L71.5564 38.7079L71.379 38.4479L71.1988 38.1906L71.0186 37.936L70.833 37.6814L70.6446 37.4295L70.4562 37.1804L70.2624 36.9312L70.0686 36.6847L69.8693 36.4383L69.67 36.1945L69.4652 35.9535L69.2605 35.7151L69.053 35.4768L68.8428 35.2412L68.6299 35.0082L68.4142 34.7753L68.1958 34.5478L67.9747 34.3176L67.7508 34.0928L67.5269 33.8707L67.3004 33.6487L67.0683 33.4293L66.8363 33.2126L66.6015 32.9986L66.364 32.7847L66.1264 32.5761L65.8835 32.3676L65.6405 32.1618L65.3948 31.9586L65.1464 31.7582L64.8979 31.5605L64.644 31.3628L64.3902 31.1678L64.1335 30.9782L63.8742 30.7886L63.6148 30.6017L63.35 30.4203L63.0852 30.2388L62.8177 30.0601L62.5501 29.884L62.2799 29.7107L62.0069 29.5401L61.7338 29.3722L61.4554 29.2042L61.1769 29.0417L60.8985 28.8819L60.6173 28.7249L60.3334 28.5705L60.0467 28.4188L59.76 28.2699L59.4707 28.1236L59.1813 27.9801L58.8892 27.8392L58.5971 27.7011L58.2995 27.5657L58.0046 27.4357L57.7071 27.3057L57.4068 27.1811L57.1037 27.0565L56.8034 26.9373L56.1919 26.7044L55.8862 26.5934L55.5777 26.4878L55.2692 26.3821L54.9579 26.2792L54.6467 26.1817L54.3355 26.0842L54.0216 25.9921L53.7049 25.9027L53.3882 25.8161L53.0715 25.7348L52.7521 25.6536L52.4327 25.5777L52.1133 25.5019L51.7911 25.4315L51.469 25.3665L51.1468 25.3015L50.822 25.2419L50.4971 25.1823L50.1722 25.1282L49.8446 25.0767L49.5198 25.0307L49.1922 24.9846L48.8618 24.944L48.5342 24.9061L48.2039 24.8736L47.8736 24.8411L47.5432 24.814L47.2129 24.7896L46.8798 24.7679L46.5468 24.749L46.2137 24.7354L45.8806 24.7246L45.5476 24.7165L45.2145 24.7111H44.8815L44.5484 24.7138L44.2126 24.7192L43.8795 24.73L43.5438 24.7409L43.2107 24.7571L42.8749 24.7761L42.5391 24.8004L42.206 24.8248L41.8703 24.8546L41.5345 24.8898L41.2014 24.925L40.8656 24.9657L40.5325 25.009L40.1995 25.055L39.8664 25.1065L39.5306 25.1607L39.1976 25.2175L38.8645 25.2771L38.5342 25.3421L38.2011 25.4071L37.8708 25.4802L37.5377 25.5534L37.2074 25.6319L36.8771 25.7105L36.5495 25.7971L36.2191 25.8838L35.8915 25.9759L35.5639 26.0707L35.2363 26.1682L34.9114 26.2684L34.5866 26.374L34.2617 26.4823L33.9396 26.5934L33.6147 26.7071L33.2953 26.8263L32.9731 26.9482L32.6537 27.0728L32.3343 27.2001L32.0176 27.3328L31.3843 27.6036L31.0703 27.7471L30.7591 27.8907L30.4451 28.0396L30.1366 28.1886L29.8254 28.343L29.5197 28.5028L29.2112 28.6626L28.9081 28.8278L28.6024 28.9957L28.3021 29.1636L27.999 29.3397L27.7015 29.5157L27.4039 29.6944L27.1063 29.8786L26.8115 30.0655L26.5194 30.2551L26.23 30.4474L25.9406 30.6424L25.6512 30.8401L25.3673 31.0432L25.0834 31.2463L24.7995 31.4549L24.521 31.6661L24.2425 31.8801L23.9641 32.0968L23.6911 32.3161L23.4181 32.5382L23.1478 32.763L22.6127 33.2234L22.3506 33.4564L22.0886 33.6947L21.8265 33.933L21.5699 34.1768L21.316 34.4205L21.0621 34.6697L20.8109 34.9216L20.5625 35.1735L20.3168 35.4308L20.0738 35.688L19.8308 35.9508L19.5933 36.2135L19.3558 36.4816L19.1238 36.7497L18.8917 37.0206L18.6624 37.2968L18.4358 37.5731L18.2119 37.852L17.9935 38.1337L17.7724 38.4181L17.5595 38.7052L17.3465 38.9922L17.1363 39.2847L16.9288 39.5773L16.7241 39.8725L16.5221 40.1731L16.3228 40.471L16.1262 40.7743L15.9324 41.0777L15.5556 41.6952L15.37 42.0066L15.1898 42.3181L15.0124 42.635L14.8349 42.9519L14.6629 43.2715L14.4937 43.591L14.3271 43.9133L14.1661 44.2383L14.005 44.566L13.8466 44.8965L13.6938 45.2242L13.5436 45.5573L13.3962 45.8904L13.2515 46.2263L13.1123 46.5648L12.973 46.9034L12.8393 47.2446L12.7082 47.5859L12.5826 47.9298L12.4571 48.2738L12.3369 48.6205L12.2196 48.9698L12.1049 49.3192L11.993 49.6686L11.8865 50.0207L11.7827 50.3755L11.6817 50.7303L11.5835 51.0851L11.4906 51.4426L11.4005 51.8028L11.3132 52.1603L11.2313 52.5205L11.1521 52.8834L11.0757 53.2436L11.002 53.6093L10.9337 53.9722L10.8682 54.3405L10.8081 54.7061L10.7481 55.0718L10.6935 55.4401L10.6443 55.8084L10.5952 56.1795L10.5515 56.5505L10.5133 56.9216L10.4778 57.2926L10.445 57.6637L10.415 58.0374L10.3904 58.4112L10.3686 58.7849L10.3495 59.1587L10.3358 59.5324L10.3249 59.9089L10.3195 60.2827L10.3167 60.6591V61.0356L10.3222 61.4093L10.3304 61.7858L10.3413 62.1623L10.3577 62.5387L10.3768 62.9152L10.3986 63.2916L10.4259 63.6681L10.456 64.0446L10.4915 64.421L10.5297 64.7975L10.5706 65.174L10.617 65.5504L10.6662 65.9242L10.7208 66.3006L10.7781 66.6771L10.8382 67.0508L10.9037 67.4246L10.9719 67.7984L11.0429 68.1721L11.1194 68.5432L11.1985 68.9169L11.2804 69.2879L11.3678 69.659L11.4579 70.03L11.5534 70.3984L11.6517 70.7694L11.7527 71.1378L11.8592 71.5034L11.9684 71.8717L12.083 72.2374L12.1977 72.6003L12.3178 72.9659L12.4434 73.3261L12.5717 73.689L12.7028 74.0492L12.8365 74.4095L12.9758 74.767L13.1177 75.1245L13.2651 75.4793L13.4153 75.8341L13.5682 76.1861L13.7238 76.5409L13.8849 76.8903L14.0487 77.2397L14.2152 77.5864L14.3872 77.933L14.5619 78.277L14.7394 78.621L14.9223 78.9622L15.1079 79.3008L15.2963 79.6393L15.4874 79.9751L15.6839 80.311L15.8832 80.6414L16.0853 80.9745L16.29 81.3022L16.5002 81.6299L16.7104 81.9549L16.9288 82.2772L17.1472 82.5995L17.3684 82.9191L17.595 83.236L17.8243 83.5502L18.0563 83.8643L18.2911 84.1731L18.5313 84.4818L18.7743 84.7879L19.0173 85.0912L19.2657 85.3946L19.5169 85.6925L19.7735 85.9904L20.0301 86.2856L20.2922 86.5781L20.5543 86.8652L20.8218 87.1523L21.0921 87.4367L21.3651 87.721L21.6408 88L21.9193 88.2763L22.2005 88.5498L22.4844 88.8206L22.7711 89.0888L23.0632 89.3542L23.3553 89.6169L23.6501 89.8769L23.9477 90.1342L24.2507 90.3888L24.5538 90.6407L24.8595 90.8898L25.1707 91.1363L25.4792 91.3773L26.1126 91.854L26.432 92.0869L26.7542 92.3171L27.079 92.5446L27.4039 92.7667L27.7342 92.9888L28.0646 93.2055L28.4004 93.4194L28.7361 93.6307L29.0747 93.8392L29.4132 94.0451L29.7572 94.2455L30.1039 94.4432L30.4479 94.6355L30.8 94.8278L31.1495 95.0147L31.5044 95.1988L31.8593 95.3803L32.2169 95.5563L32.5773 95.7297L32.9376 95.9003L33.3007 96.0655L33.6666 96.228L34.0324 96.3878L34.4037 96.5449L34.7722 96.6965L35.1435 96.8428L35.5175 96.989L35.8942 97.1299L36.271 97.2653L36.6505 97.4007L37.0299 97.5307L37.4121 97.6553L37.7943 97.7772L38.1793 97.8963L38.5669 98.0101L38.9519 98.1184L39.3423 98.2268L39.7299 98.3297L40.1203 98.4272L40.5134 98.522L40.9066 98.6141L41.3024 98.7007L41.6983 98.7847L42.0941 98.8632L42.4927 98.9364L42.8913 99.0095L43.2899 99.0772L43.6912 99.1395L44.0925 99.1991L44.4938 99.2532L44.8951 99.3047L45.3019 99.3507L45.7032 99.3941L46.11 99.432L46.514 99.4672L46.9208 99.497L47.3276 99.5241L47.7343 99.5457L48.1411 99.5647L48.5506 99.5782L48.9574 99.5891L49.3669 99.5945L49.7737 99.5972L50.1832 99.5945L50.5927 99.5891L51.0022 99.5782L51.4117 99.562L51.8212 99.543L52.2307 99.5214L52.6429 99.4943L53.0524 99.4618L53.4592 99.4266L53.8714 99.3859L54.2782 99.3426L54.6877 99.2939L55.0972 99.2424L55.504 99.1855L55.9135 99.1232L56.3202 99.0582L56.727 98.9905L57.1338 98.9174L57.5405 98.8389L57.9473 98.7576L58.3514 98.6736L58.7554 98.5816L59.1594 98.4895L59.5635 98.3893L59.9648 98.2891L60.3661 98.1807L60.7674 98.0724L61.166 97.9559L61.5646 97.8368L61.9632 97.7149L62.3617 97.5876L62.7576 97.4576L63.1507 97.3222L63.937 97.0405L64.3274 96.8915L64.7178 96.7399L65.1081 96.5855L65.4931 96.4257L65.8807 96.2632L66.2657 96.0953L66.6479 95.922L67.0301 95.7486L67.4096 95.5699L67.789 95.3857L68.1658 95.1988L68.5398 95.0065L68.9138 94.8115L69.2851 94.6111L69.6536 94.4107L70.0249 94.2021L70.388 93.9936L70.7538 93.7769L71.1169 93.5603L71.4773 93.3382L71.8349 93.1134L72.1925 92.8832L72.5474 92.6503L72.8996 92.4119L73.2491 92.1709L73.5958 91.9271L73.9425 91.6807L74.2837 91.4288L74.625 91.1715L74.9635 90.9142L75.2993 90.6515L75.6351 90.3861L75.9654 90.1152L76.2958 89.8417L76.6206 89.5681L76.9455 89.2865L77.2649 89.0021L77.5843 88.7177L77.901 88.4279L78.2122 88.1327L78.5234 87.8375L78.8319 87.5369L79.135 87.2335L79.438 86.9275L79.7356 86.616L80.0331 86.3046L80.3253 85.9877L80.6146 85.6681L80.904 85.3458L81.1879 85.0208L81.4691 84.6931L81.7449 84.36L82.0206 84.0268L82.2909 83.6883L82.5611 83.347L82.826 83.0058L83.088 82.6591L83.3447 82.3097L83.6013 81.9576L83.8524 81.6029L84.1009 81.2454L84.3466 80.8851L84.5868 80.5222L84.827 80.1593L85.0618 79.791L85.2912 79.4199L85.5205 79.0462L85.7443 78.6697L85.9627 78.2932L86.1811 77.9141L86.3941 77.5295L86.6016 77.1449L86.809 76.7576L87.0111 76.3676L87.2076 75.9749L87.4015 75.5822L87.5926 75.1841L87.7782 74.7859L87.9611 74.3851L88.1413 73.9842L88.316 73.578L88.488 73.1717L88.6545 72.7628L88.8183 72.3538L88.9767 71.9394L89.1323 71.5278L89.2824 71.1107L89.4299 70.6936L89.5718 70.2738L89.711 69.854L89.8475 69.4288L89.9759 69.0063L90.1042 68.5811L90.227 68.1531L90.3444 67.7252L90.4591 67.2946L90.5683 66.8613L90.6748 66.4306L90.7758 65.9946L90.8713 65.5612L90.9641 65.1225L91.0542 64.6864L91.1361 64.2477L91.218 63.8062L91.2917 63.3675L91.3627 62.9233L91.431 62.4818L91.4938 62.0377L91.5511 61.5935L91.6057 61.1493L91.6548 60.7025L91.6985 60.2556L91.7395 59.8087L91.7749 59.3591L91.8077 58.9095L91.835 58.4599L91.8596 58.0103L91.876 57.5608L91.8896 57.1112L91.9005 56.6589L91.906 56.2093V55.757L91.9005 55.2559V14.311H80.1287L97.0657 0L114 14.311H102.217V55.2072Z" fill="#427BE9"/>
</svg>
